<svg xmlns="http://www.w3.org/2000/svg" viewBox="0 0 1120 720" width="1120" height="720">
<style>
text{font-family:Arial,Helvetica,sans-serif;fill:#111827}
.subtitle{fill:#4b5563;font-size:14px}
.axis{stroke:#111827;stroke-width:1.2}
.grid{stroke:#e5e7eb;stroke-width:1}
.tick{fill:#374151;font-size:12px}
.title{font-size:22px;font-weight:700}
.panel-title{font-size:16px;font-weight:700}
.legend{font-size:13px}
</style>
<text x="80" y="42" class="title">Scramble mixing statistics, n=20</text>
<text x="80" y="66" class="subtitle">Average over 32 trials. Lower total variation distance means closer to random/uniform.</text>
<text x="80" y="88" class="subtitle">Both methods use 3*n*k move attempts; uniform random layers choose outer and inner depths with equal per-layer probability.</text>
<text x="80" y="88" class="panel-title">Face color distribution</text>
<text x="80" y="108" class="subtitle">TV distance from uniform face/color bins</text>
<line x1="80" y1="560" x2="550" y2="560" class="grid"/>
<text x="72" y="564" text-anchor="end" class="tick">0.00</text>
<line x1="80" y1="452.5" x2="550" y2="452.5" class="grid"/>
<text x="72" y="456.5" text-anchor="end" class="tick">0.21</text>
<line x1="80" y1="345" x2="550" y2="345" class="grid"/>
<text x="72" y="349" text-anchor="end" class="tick">0.42</text>
<line x1="80" y1="237.5" x2="550" y2="237.5" class="grid"/>
<text x="72" y="241.5" text-anchor="end" class="tick">0.62</text>
<line x1="80" y1="130" x2="550" y2="130" class="grid"/>
<text x="72" y="134" text-anchor="end" class="tick">0.83</text>
<line x1="80" y1="130" x2="80" y2="560" class="grid"/>
<text x="80" y="582" text-anchor="middle" class="tick">0</text>
<line x1="197.5" y1="130" x2="197.5" y2="560" class="grid"/>
<text x="197.5" y="582" text-anchor="middle" class="tick">4</text>
<line x1="315" y1="130" x2="315" y2="560" class="grid"/>
<text x="315" y="582" text-anchor="middle" class="tick">8</text>
<line x1="432.5" y1="130" x2="432.5" y2="560" class="grid"/>
<text x="432.5" y="582" text-anchor="middle" class="tick">12</text>
<line x1="550" y1="130" x2="550" y2="560" class="grid"/>
<text x="550" y="582" text-anchor="middle" class="tick">16</text>
<line x1="80" y1="560" x2="550" y2="560" class="axis"/>
<line x1="80" y1="130" x2="80" y2="560" class="axis"/>
<text x="315" y="610" text-anchor="middle" class="tick">k</text>
<polyline points="80.00,130.00 109.38,493.35 138.75,531.83 168.12,537.36 197.50,537.21 226.88,538.30 256.25,538.23 285.62,538.53 315.00,538.25 344.38,538.48 373.75,538.69 403.12,537.95 432.50,538.97 461.88,537.41 491.25,538.44 520.62,538.22 550.00,538.39 " fill="none" stroke="#2563eb" stroke-width="2.5" stroke-linejoin="round" stroke-linecap="round"/>
<polyline points="80.00,130.00 109.38,414.95 138.75,495.68 168.12,514.54 197.50,523.87 226.88,531.77 256.25,536.40 285.62,536.97 315.00,537.11 344.38,538.10 373.75,538.45 403.12,538.37 432.50,538.13 461.88,538.30 491.25,537.87 520.62,539.59 550.00,538.42 " fill="none" stroke="#dc2626" stroke-width="2.5" stroke-linejoin="round" stroke-linecap="round"/>
<text x="610" y="88" class="panel-title">Neighbor color-pair distribution</text>
<text x="610" y="108" class="subtitle">TV distance from random unordered pairs</text>
<line x1="610" y1="560" x2="1080" y2="560" class="grid"/>
<text x="602" y="564" text-anchor="end" class="tick">0.00</text>
<line x1="610" y1="452.5" x2="1080" y2="452.5" class="grid"/>
<text x="602" y="456.5" text-anchor="end" class="tick">0.21</text>
<line x1="610" y1="345" x2="1080" y2="345" class="grid"/>
<text x="602" y="349" text-anchor="end" class="tick">0.42</text>
<line x1="610" y1="237.5" x2="1080" y2="237.5" class="grid"/>
<text x="602" y="241.5" text-anchor="end" class="tick">0.62</text>
<line x1="610" y1="130" x2="1080" y2="130" class="grid"/>
<text x="602" y="134" text-anchor="end" class="tick">0.83</text>
<line x1="610" y1="130" x2="610" y2="560" class="grid"/>
<text x="610" y="582" text-anchor="middle" class="tick">0</text>
<line x1="727.5" y1="130" x2="727.5" y2="560" class="grid"/>
<text x="727.5" y="582" text-anchor="middle" class="tick">4</text>
<line x1="845" y1="130" x2="845" y2="560" class="grid"/>
<text x="845" y="582" text-anchor="middle" class="tick">8</text>
<line x1="962.5" y1="130" x2="962.5" y2="560" class="grid"/>
<text x="962.5" y="582" text-anchor="middle" class="tick">12</text>
<line x1="1080" y1="130" x2="1080" y2="560" class="grid"/>
<text x="1080" y="582" text-anchor="middle" class="tick">16</text>
<line x1="610" y1="560" x2="1080" y2="560" class="axis"/>
<line x1="610" y1="130" x2="610" y2="560" class="axis"/>
<text x="845" y="610" text-anchor="middle" class="tick">k</text>
<polyline points="610.00,130.00 639.38,500.07 668.75,544.15 698.12,547.21 727.50,548.04 756.88,548.08 786.25,547.97 815.62,547.34 845.00,547.93 874.38,548.35 903.75,548.46 933.12,548.09 962.50,548.32 991.88,547.63 1021.25,548.85 1050.62,548.44 1080.00,548.35 " fill="none" stroke="#2563eb" stroke-width="2.5" stroke-linejoin="round" stroke-linecap="round"/>
<polyline points="610.00,130.00 639.38,394.27 668.75,488.33 698.12,520.54 727.50,536.14 756.88,544.12 786.25,546.90 815.62,547.66 845.00,547.81 874.38,548.09 903.75,547.52 933.12,548.11 962.50,547.65 991.88,548.03 1021.25,547.55 1050.62,547.94 1080.00,547.82 " fill="none" stroke="#dc2626" stroke-width="2.5" stroke-linejoin="round" stroke-linecap="round"/>
<line x1="390" y1="620" x2="428" y2="620" stroke="#2563eb" stroke-width="3"/>
<text x="438" y="624" class="legend">Uniform random layers</text>
<line x1="610" y1="620" x2="648" y2="620" stroke="#dc2626" stroke-width="3"/>
<text x="658" y="624" class="legend">Layer sweeps</text>
</svg>
