<svg xmlns="http://www.w3.org/2000/svg" width="1200" height="760" viewBox="0 0 1200 760">
<rect width="1200" height="760" fill="#fbfaf7"/>
<text x="42.0" y="38.0" font-family="monospace" font-size="18" fill="#111827" text-anchor="start" font-weight="700" >Stage runtime scaling - backend=byte, mode=optimized, attempts=3</text>
<text x="42.0" y="58.0" font-family="monospace" font-size="12" fill="#4b5563" text-anchor="start" font-weight="400" >Solid points: measured averages. Solid fit: n &gt;= 1024. Dashed: extrapolated to 262144.</text>
<rect x="88" y="72" width="842" height="606" fill="#ffffff" stroke="#d1d5db"/>
<line x1="88.0" y1="72" x2="88.0" y2="678" stroke="#e5e7eb"/>
<line x1="88.0" y1="678" x2="88.0" y2="684" stroke="#374151"/>
<text x="88.0" y="702.0" font-family="monospace" font-size="11" fill="#374151" text-anchor="middle" font-weight="400" >1</text>
<line x1="134.8" y1="72" x2="134.8" y2="678" stroke="#e5e7eb"/>
<line x1="134.8" y1="678" x2="134.8" y2="684" stroke="#374151"/>
<text x="134.8" y="702.0" font-family="monospace" font-size="11" fill="#374151" text-anchor="middle" font-weight="400" >2</text>
<line x1="181.6" y1="72" x2="181.6" y2="678" stroke="#e5e7eb"/>
<line x1="181.6" y1="678" x2="181.6" y2="684" stroke="#374151"/>
<text x="181.6" y="702.0" font-family="monospace" font-size="11" fill="#374151" text-anchor="middle" font-weight="400" >4</text>
<line x1="228.3" y1="72" x2="228.3" y2="678" stroke="#e5e7eb"/>
<line x1="228.3" y1="678" x2="228.3" y2="684" stroke="#374151"/>
<text x="228.3" y="702.0" font-family="monospace" font-size="11" fill="#374151" text-anchor="middle" font-weight="400" >8</text>
<line x1="275.1" y1="72" x2="275.1" y2="678" stroke="#e5e7eb"/>
<line x1="275.1" y1="678" x2="275.1" y2="684" stroke="#374151"/>
<text x="275.1" y="702.0" font-family="monospace" font-size="11" fill="#374151" text-anchor="middle" font-weight="400" >16</text>
<line x1="321.9" y1="72" x2="321.9" y2="678" stroke="#e5e7eb"/>
<line x1="321.9" y1="678" x2="321.9" y2="684" stroke="#374151"/>
<text x="321.9" y="702.0" font-family="monospace" font-size="11" fill="#374151" text-anchor="middle" font-weight="400" >32</text>
<line x1="368.7" y1="72" x2="368.7" y2="678" stroke="#e5e7eb"/>
<line x1="368.7" y1="678" x2="368.7" y2="684" stroke="#374151"/>
<text x="368.7" y="702.0" font-family="monospace" font-size="11" fill="#374151" text-anchor="middle" font-weight="400" >64</text>
<line x1="415.4" y1="72" x2="415.4" y2="678" stroke="#e5e7eb"/>
<line x1="415.4" y1="678" x2="415.4" y2="684" stroke="#374151"/>
<text x="415.4" y="702.0" font-family="monospace" font-size="11" fill="#374151" text-anchor="middle" font-weight="400" >128</text>
<line x1="462.2" y1="72" x2="462.2" y2="678" stroke="#e5e7eb"/>
<line x1="462.2" y1="678" x2="462.2" y2="684" stroke="#374151"/>
<text x="462.2" y="702.0" font-family="monospace" font-size="11" fill="#374151" text-anchor="middle" font-weight="400" >256</text>
<line x1="509.0" y1="72" x2="509.0" y2="678" stroke="#e5e7eb"/>
<line x1="509.0" y1="678" x2="509.0" y2="684" stroke="#374151"/>
<text x="509.0" y="702.0" font-family="monospace" font-size="11" fill="#374151" text-anchor="middle" font-weight="400" >512</text>
<line x1="555.8" y1="72" x2="555.8" y2="678" stroke="#e5e7eb"/>
<line x1="555.8" y1="678" x2="555.8" y2="684" stroke="#374151"/>
<text x="555.8" y="702.0" font-family="monospace" font-size="11" fill="#374151" text-anchor="middle" font-weight="400" >1024</text>
<line x1="602.6" y1="72" x2="602.6" y2="678" stroke="#e5e7eb"/>
<line x1="602.6" y1="678" x2="602.6" y2="684" stroke="#374151"/>
<text x="602.6" y="702.0" font-family="monospace" font-size="11" fill="#374151" text-anchor="middle" font-weight="400" >2048</text>
<line x1="649.3" y1="72" x2="649.3" y2="678" stroke="#e5e7eb"/>
<line x1="649.3" y1="678" x2="649.3" y2="684" stroke="#374151"/>
<text x="649.3" y="702.0" font-family="monospace" font-size="11" fill="#374151" text-anchor="middle" font-weight="400" >4096</text>
<line x1="696.1" y1="72" x2="696.1" y2="678" stroke="#e5e7eb"/>
<line x1="696.1" y1="678" x2="696.1" y2="684" stroke="#374151"/>
<text x="696.1" y="702.0" font-family="monospace" font-size="11" fill="#374151" text-anchor="middle" font-weight="400" >8192</text>
<line x1="742.9" y1="72" x2="742.9" y2="678" stroke="#e5e7eb"/>
<line x1="742.9" y1="678" x2="742.9" y2="684" stroke="#374151"/>
<text x="742.9" y="702.0" font-family="monospace" font-size="11" fill="#374151" text-anchor="middle" font-weight="400" >16384</text>
<line x1="789.7" y1="72" x2="789.7" y2="678" stroke="#e5e7eb"/>
<line x1="789.7" y1="678" x2="789.7" y2="684" stroke="#374151"/>
<text x="789.7" y="702.0" font-family="monospace" font-size="11" fill="#374151" text-anchor="middle" font-weight="400" >32768</text>
<line x1="836.4" y1="72" x2="836.4" y2="678" stroke="#e5e7eb"/>
<line x1="836.4" y1="678" x2="836.4" y2="684" stroke="#374151"/>
<text x="836.4" y="702.0" font-family="monospace" font-size="11" fill="#374151" text-anchor="middle" font-weight="400" >65536</text>
<line x1="883.2" y1="72" x2="883.2" y2="678" stroke="#e5e7eb"/>
<line x1="883.2" y1="678" x2="883.2" y2="684" stroke="#374151"/>
<text x="883.2" y="702.0" font-family="monospace" font-size="11" fill="#374151" text-anchor="middle" font-weight="400" >131072</text>
<line x1="930.0" y1="72" x2="930.0" y2="678" stroke="#e5e7eb"/>
<line x1="930.0" y1="678" x2="930.0" y2="684" stroke="#374151"/>
<text x="930.0" y="702.0" font-family="monospace" font-size="11" fill="#374151" text-anchor="middle" font-weight="400" >262144</text>
<line x1="88" y1="678.0" x2="930" y2="678.0" stroke="#e5e7eb"/>
<line x1="82" y1="678.0" x2="88" y2="678.0" stroke="#374151"/>
<text x="78.0" y="682.0" font-family="monospace" font-size="11" fill="#374151" text-anchor="end" font-weight="400" >1 us</text>
<line x1="88" y1="627.2" x2="930" y2="627.2" stroke="#e5e7eb"/>
<line x1="82" y1="627.2" x2="88" y2="627.2" stroke="#374151"/>
<text x="78.0" y="631.2" font-family="monospace" font-size="11" fill="#374151" text-anchor="end" font-weight="400" >10 us</text>
<line x1="88" y1="576.5" x2="930" y2="576.5" stroke="#e5e7eb"/>
<line x1="82" y1="576.5" x2="88" y2="576.5" stroke="#374151"/>
<text x="78.0" y="580.5" font-family="monospace" font-size="11" fill="#374151" text-anchor="end" font-weight="400" >100 us</text>
<line x1="88" y1="525.7" x2="930" y2="525.7" stroke="#e5e7eb"/>
<line x1="82" y1="525.7" x2="88" y2="525.7" stroke="#374151"/>
<text x="78.0" y="529.7" font-family="monospace" font-size="11" fill="#374151" text-anchor="end" font-weight="400" >1 ms</text>
<line x1="88" y1="474.9" x2="930" y2="474.9" stroke="#e5e7eb"/>
<line x1="82" y1="474.9" x2="88" y2="474.9" stroke="#374151"/>
<text x="78.0" y="478.9" font-family="monospace" font-size="11" fill="#374151" text-anchor="end" font-weight="400" >10 ms</text>
<line x1="88" y1="424.2" x2="930" y2="424.2" stroke="#e5e7eb"/>
<line x1="82" y1="424.2" x2="88" y2="424.2" stroke="#374151"/>
<text x="78.0" y="428.2" font-family="monospace" font-size="11" fill="#374151" text-anchor="end" font-weight="400" >100 ms</text>
<line x1="88" y1="373.4" x2="930" y2="373.4" stroke="#e5e7eb"/>
<line x1="82" y1="373.4" x2="88" y2="373.4" stroke="#374151"/>
<text x="78.0" y="377.4" font-family="monospace" font-size="11" fill="#374151" text-anchor="end" font-weight="400" >1 s</text>
<line x1="88" y1="322.6" x2="930" y2="322.6" stroke="#e5e7eb"/>
<line x1="82" y1="322.6" x2="88" y2="322.6" stroke="#374151"/>
<text x="78.0" y="326.6" font-family="monospace" font-size="11" fill="#374151" text-anchor="end" font-weight="400" >10 s</text>
<line x1="88" y1="283.1" x2="930" y2="283.1" stroke="#e5e7eb"/>
<line x1="82" y1="283.1" x2="88" y2="283.1" stroke="#374151"/>
<text x="78.0" y="287.1" font-family="monospace" font-size="11" fill="#374151" text-anchor="end" font-weight="400" >1 m</text>
<line x1="88" y1="232.3" x2="930" y2="232.3" stroke="#e5e7eb"/>
<line x1="82" y1="232.3" x2="88" y2="232.3" stroke="#374151"/>
<text x="78.0" y="236.3" font-family="monospace" font-size="11" fill="#374151" text-anchor="end" font-weight="400" >10 m</text>
<line x1="88" y1="192.8" x2="930" y2="192.8" stroke="#e5e7eb"/>
<line x1="82" y1="192.8" x2="88" y2="192.8" stroke="#374151"/>
<text x="78.0" y="196.8" font-family="monospace" font-size="11" fill="#374151" text-anchor="end" font-weight="400" >1 h</text>
<line x1="88" y1="142.1" x2="930" y2="142.1" stroke="#e5e7eb"/>
<line x1="82" y1="142.1" x2="88" y2="142.1" stroke="#374151"/>
<text x="78.0" y="146.1" font-family="monospace" font-size="11" fill="#374151" text-anchor="end" font-weight="400" >10 h</text>
<line x1="88" y1="122.8" x2="930" y2="122.8" stroke="#e5e7eb"/>
<line x1="82" y1="122.8" x2="88" y2="122.8" stroke="#374151"/>
<text x="78.0" y="126.8" font-family="monospace" font-size="11" fill="#374151" text-anchor="end" font-weight="400" >1 d</text>
<line x1="88" y1="72.0" x2="930" y2="72.0" stroke="#e5e7eb"/>
<line x1="82" y1="72.0" x2="88" y2="72.0" stroke="#374151"/>
<text x="78.0" y="76.0" font-family="monospace" font-size="11" fill="#374151" text-anchor="end" font-weight="400" >10 d</text>
<line x1="88" y1="678" x2="930" y2="678" stroke="#111827"/>
<line x1="88" y1="72" x2="88" y2="678" stroke="#111827"/>
<text x="509.0" y="732.0" font-family="monospace" font-size="13" fill="#111827" text-anchor="middle" font-weight="400" >cube side length n</text>
<text x="20.0" y="375.0" font-family="monospace" font-size="13" fill="#111827" text-anchor="middle" font-weight="400" transform="rotate(-90 20 375)">time</text>
<polyline points="555.8,469.3 696.1,377.7" fill="none" stroke="#4c78a8" stroke-width="2.2" stroke-linecap="round" stroke-linejoin="round"/>
<polyline points="696.1,377.7 930.0,225.2" fill="none" stroke="#4c78a8" stroke-width="2.2" stroke-linecap="round" stroke-linejoin="round" stroke-dasharray="7 5"/>
<polyline points="555.8,425.3 696.1,318.9" fill="none" stroke="#f58518" stroke-width="2.2" stroke-linecap="round" stroke-linejoin="round"/>
<polyline points="696.1,318.9 930.0,141.6" fill="none" stroke="#f58518" stroke-width="2.2" stroke-linecap="round" stroke-linejoin="round" stroke-dasharray="7 5"/>
<polyline points="555.8,511.6 696.1,462.1" fill="none" stroke="#54a24b" stroke-width="2.2" stroke-linecap="round" stroke-linejoin="round"/>
<polyline points="696.1,462.1 930.0,379.7" fill="none" stroke="#54a24b" stroke-width="2.2" stroke-linecap="round" stroke-linejoin="round" stroke-dasharray="7 5"/>
<polyline points="555.8,425.2 696.1,379.6" fill="none" stroke="#e45756" stroke-width="2.2" stroke-linecap="round" stroke-linejoin="round"/>
<polyline points="696.1,379.6 930.0,303.5" fill="none" stroke="#e45756" stroke-width="2.2" stroke-linecap="round" stroke-linejoin="round" stroke-dasharray="7 5"/>
<polyline points="555.8,401.9 696.1,296.1" fill="none" stroke="#72b7b2" stroke-width="2.2" stroke-linecap="round" stroke-linejoin="round"/>
<polyline points="696.1,296.1 930.0,119.9" fill="none" stroke="#72b7b2" stroke-width="2.2" stroke-linecap="round" stroke-linejoin="round" stroke-dasharray="7 5"/>
<polyline points="696.1,288.6 742.9,253.6 789.7,218.5 836.4,183.3 883.2,148.0 930.0,112.7" fill="none" stroke="#111827" stroke-width="2.2" stroke-linecap="round" stroke-linejoin="round" stroke-dasharray="7 5"/>
<polyline points="88.0,649.4 134.8,651.5 181.6,651.5 228.3,645.7 275.1,629.6 321.9,615.1 368.7,586.3 415.4,556.9 462.2,529.2 509.0,499.5 555.8,469.1 602.6,438.9 649.3,408.3 696.1,377.6" fill="none" stroke="#4c78a8" stroke-width="2.2" stroke-linecap="round" stroke-linejoin="round"/>
<circle cx="88.0" cy="649.4" r="3.4" fill="#4c78a8"/>
<circle cx="134.8" cy="651.5" r="3.4" fill="#4c78a8"/>
<circle cx="181.6" cy="651.5" r="3.4" fill="#4c78a8"/>
<circle cx="228.3" cy="645.7" r="3.4" fill="#4c78a8"/>
<circle cx="275.1" cy="629.6" r="3.4" fill="#4c78a8"/>
<circle cx="321.9" cy="615.1" r="3.4" fill="#4c78a8"/>
<circle cx="368.7" cy="586.3" r="3.4" fill="#4c78a8"/>
<circle cx="415.4" cy="556.9" r="3.4" fill="#4c78a8"/>
<circle cx="462.2" cy="529.2" r="3.4" fill="#4c78a8"/>
<circle cx="509.0" cy="499.5" r="3.4" fill="#4c78a8"/>
<circle cx="555.8" cy="469.1" r="3.4" fill="#4c78a8"/>
<circle cx="602.6" cy="438.9" r="3.4" fill="#4c78a8"/>
<circle cx="649.3" cy="408.3" r="3.4" fill="#4c78a8"/>
<circle cx="696.1" cy="377.6" r="3.4" fill="#4c78a8"/>
<polyline points="88.0,618.8 134.8,616.4 181.6,610.9 228.3,607.9 275.1,596.1 321.9,586.7 368.7,572.3 415.4,541.8 462.2,510.8 509.0,472.9 555.8,424.6 602.6,390.0 649.3,356.1 696.1,317.7" fill="none" stroke="#f58518" stroke-width="2.2" stroke-linecap="round" stroke-linejoin="round"/>
<circle cx="88.0" cy="618.8" r="3.4" fill="#f58518"/>
<circle cx="134.8" cy="616.4" r="3.4" fill="#f58518"/>
<circle cx="181.6" cy="610.9" r="3.4" fill="#f58518"/>
<circle cx="228.3" cy="607.9" r="3.4" fill="#f58518"/>
<circle cx="275.1" cy="596.1" r="3.4" fill="#f58518"/>
<circle cx="321.9" cy="586.7" r="3.4" fill="#f58518"/>
<circle cx="368.7" cy="572.3" r="3.4" fill="#f58518"/>
<circle cx="415.4" cy="541.8" r="3.4" fill="#f58518"/>
<circle cx="462.2" cy="510.8" r="3.4" fill="#f58518"/>
<circle cx="509.0" cy="472.9" r="3.4" fill="#f58518"/>
<circle cx="555.8" cy="424.6" r="3.4" fill="#f58518"/>
<circle cx="602.6" cy="390.0" r="3.4" fill="#f58518"/>
<circle cx="649.3" cy="356.1" r="3.4" fill="#f58518"/>
<circle cx="696.1" cy="317.7" r="3.4" fill="#f58518"/>
<polyline points="88.0,671.7 134.8,566.4 181.6,566.0 228.3,565.2 275.1,564.0 321.9,564.8 368.7,563.7 415.4,561.0 462.2,557.1 509.0,540.8 555.8,513.9 602.6,493.5 649.3,474.9 696.1,465.1" fill="none" stroke="#54a24b" stroke-width="2.2" stroke-linecap="round" stroke-linejoin="round"/>
<circle cx="88.0" cy="671.7" r="3.4" fill="#54a24b"/>
<circle cx="134.8" cy="566.4" r="3.4" fill="#54a24b"/>
<circle cx="181.6" cy="566.0" r="3.4" fill="#54a24b"/>
<circle cx="228.3" cy="565.2" r="3.4" fill="#54a24b"/>
<circle cx="275.1" cy="564.0" r="3.4" fill="#54a24b"/>
<circle cx="321.9" cy="564.8" r="3.4" fill="#54a24b"/>
<circle cx="368.7" cy="563.7" r="3.4" fill="#54a24b"/>
<circle cx="415.4" cy="561.0" r="3.4" fill="#54a24b"/>
<circle cx="462.2" cy="557.1" r="3.4" fill="#54a24b"/>
<circle cx="509.0" cy="540.8" r="3.4" fill="#54a24b"/>
<circle cx="555.8" cy="513.9" r="3.4" fill="#54a24b"/>
<circle cx="602.6" cy="493.5" r="3.4" fill="#54a24b"/>
<circle cx="649.3" cy="474.9" r="3.4" fill="#54a24b"/>
<circle cx="696.1" cy="465.1" r="3.4" fill="#54a24b"/>
<polyline points="88.0,659.3 134.8,678.0 181.6,500.3 228.3,502.2 275.1,497.0 321.9,488.8 368.7,479.5 415.4,466.4 462.2,454.4 509.0,439.6 555.8,425.0 602.6,410.2 649.3,394.9 696.1,379.4" fill="none" stroke="#e45756" stroke-width="2.2" stroke-linecap="round" stroke-linejoin="round"/>
<circle cx="88.0" cy="659.3" r="3.4" fill="#e45756"/>
<circle cx="134.8" cy="678.0" r="3.4" fill="#e45756"/>
<circle cx="181.6" cy="500.3" r="3.4" fill="#e45756"/>
<circle cx="228.3" cy="502.2" r="3.4" fill="#e45756"/>
<circle cx="275.1" cy="497.0" r="3.4" fill="#e45756"/>
<circle cx="321.9" cy="488.8" r="3.4" fill="#e45756"/>
<circle cx="368.7" cy="479.5" r="3.4" fill="#e45756"/>
<circle cx="415.4" cy="466.4" r="3.4" fill="#e45756"/>
<circle cx="462.2" cy="454.4" r="3.4" fill="#e45756"/>
<circle cx="509.0" cy="439.6" r="3.4" fill="#e45756"/>
<circle cx="555.8" cy="425.0" r="3.4" fill="#e45756"/>
<circle cx="602.6" cy="410.2" r="3.4" fill="#e45756"/>
<circle cx="649.3" cy="394.9" r="3.4" fill="#e45756"/>
<circle cx="696.1" cy="379.4" r="3.4" fill="#e45756"/>
<polyline points="88.0,622.0 134.8,619.8 181.6,600.9 228.3,587.2 275.1,566.6 321.9,542.7 368.7,517.8 415.4,491.1 462.2,462.3 509.0,433.7 555.8,402.6 602.6,366.1 649.3,330.3 696.1,297.0" fill="none" stroke="#72b7b2" stroke-width="2.2" stroke-linecap="round" stroke-linejoin="round"/>
<circle cx="88.0" cy="622.0" r="3.4" fill="#72b7b2"/>
<circle cx="134.8" cy="619.8" r="3.4" fill="#72b7b2"/>
<circle cx="181.6" cy="600.9" r="3.4" fill="#72b7b2"/>
<circle cx="228.3" cy="587.2" r="3.4" fill="#72b7b2"/>
<circle cx="275.1" cy="566.6" r="3.4" fill="#72b7b2"/>
<circle cx="321.9" cy="542.7" r="3.4" fill="#72b7b2"/>
<circle cx="368.7" cy="517.8" r="3.4" fill="#72b7b2"/>
<circle cx="415.4" cy="491.1" r="3.4" fill="#72b7b2"/>
<circle cx="462.2" cy="462.3" r="3.4" fill="#72b7b2"/>
<circle cx="509.0" cy="433.7" r="3.4" fill="#72b7b2"/>
<circle cx="555.8" cy="402.6" r="3.4" fill="#72b7b2"/>
<circle cx="602.6" cy="366.1" r="3.4" fill="#72b7b2"/>
<circle cx="649.3" cy="330.3" r="3.4" fill="#72b7b2"/>
<circle cx="696.1" cy="297.0" r="3.4" fill="#72b7b2"/>
<polyline points="88.0,599.8 134.8,562.0 181.6,498.9 228.3,500.3 275.1,494.8 321.9,486.1 368.7,475.1 415.4,459.1 462.2,441.2 509.0,418.5 555.8,389.8 602.6,357.0 649.3,323.0 696.1,288.9" fill="none" stroke="#111827" stroke-width="2.2" stroke-linecap="round" stroke-linejoin="round"/>
<rect x="84.2" y="596.0" width="7.6" height="7.6" fill="#111827"/>
<rect x="131.0" y="558.2" width="7.6" height="7.6" fill="#111827"/>
<rect x="177.8" y="495.1" width="7.6" height="7.6" fill="#111827"/>
<rect x="224.5" y="496.5" width="7.6" height="7.6" fill="#111827"/>
<rect x="271.3" y="491.0" width="7.6" height="7.6" fill="#111827"/>
<rect x="318.1" y="482.3" width="7.6" height="7.6" fill="#111827"/>
<rect x="364.9" y="471.3" width="7.6" height="7.6" fill="#111827"/>
<rect x="411.6" y="455.3" width="7.6" height="7.6" fill="#111827"/>
<rect x="458.4" y="437.4" width="7.6" height="7.6" fill="#111827"/>
<rect x="505.2" y="414.7" width="7.6" height="7.6" fill="#111827"/>
<rect x="552.0" y="386.0" width="7.6" height="7.6" fill="#111827"/>
<rect x="598.8" y="353.2" width="7.6" height="7.6" fill="#111827"/>
<rect x="645.5" y="319.2" width="7.6" height="7.6" fill="#111827"/>
<rect x="692.3" y="285.1" width="7.6" height="7.6" fill="#111827"/>
<text x="966.0" y="76.0" font-family="monospace" font-size="13" fill="#111827" text-anchor="start" font-weight="700" >series</text>
<line x1="966" y1="90.0" x2="990" y2="90.0" stroke="#4c78a8" stroke-width="3"/>
<text x="1000.0" y="94.0" font-family="monospace" font-size="12" fill="#111827" text-anchor="start" font-weight="400" >init</text>
<line x1="966" y1="115.0" x2="990" y2="115.0" stroke="#f58518" stroke-width="3"/>
<text x="1000.0" y="119.0" font-family="monospace" font-size="12" fill="#111827" text-anchor="start" font-weight="400" >scramble</text>
<line x1="966" y1="140.0" x2="990" y2="140.0" stroke="#54a24b" stroke-width="3"/>
<text x="1000.0" y="144.0" font-family="monospace" font-size="12" fill="#111827" text-anchor="start" font-weight="400" >corner</text>
<line x1="966" y1="165.0" x2="990" y2="165.0" stroke="#e45756" stroke-width="3"/>
<text x="1000.0" y="169.0" font-family="monospace" font-size="12" fill="#111827" text-anchor="start" font-weight="400" >edge</text>
<line x1="966" y1="190.0" x2="990" y2="190.0" stroke="#72b7b2" stroke-width="3"/>
<text x="1000.0" y="194.0" font-family="monospace" font-size="12" fill="#111827" text-anchor="start" font-weight="400" >center</text>
<line x1="966" y1="215.0" x2="990" y2="215.0" stroke="#111827" stroke-width="3"/>
<text x="1000.0" y="219.0" font-family="monospace" font-size="12" fill="#111827" text-anchor="start" font-weight="400" >total</text>
<text x="966.0" y="262.0" font-family="monospace" font-size="13" fill="#111827" text-anchor="start" font-weight="700" >fit exponents</text>
<text x="966.0" y="284.0" font-family="monospace" font-size="11" fill="#374151" text-anchor="start" font-weight="400" >init: O(n^2.00)</text>
<text x="966.0" y="303.0" font-family="monospace" font-size="11" fill="#374151" text-anchor="start" font-weight="400" >scramble: O(n^2.32)</text>
<text x="966.0" y="322.0" font-family="monospace" font-size="11" fill="#374151" text-anchor="start" font-weight="400" >corner: O(n^1.08)</text>
<text x="966.0" y="341.0" font-family="monospace" font-size="11" fill="#374151" text-anchor="start" font-weight="400" >edge: O(n^0.99)</text>
<text x="966.0" y="360.0" font-family="monospace" font-size="11" fill="#374151" text-anchor="start" font-weight="400" >center: O(n^2.31)</text>
</svg>
