<svg xmlns="http://www.w3.org/2000/svg" width="1200" height="760" viewBox="0 0 1200 760">
<rect width="1200" height="760" fill="#fbfaf7"/>
<text x="42.0" y="38.0" font-family="monospace" font-size="18" fill="#111827" text-anchor="start" font-weight="700" >Stage runtime scaling - backend=byte, mode=optimized, attempts=3</text>
<text x="42.0" y="58.0" font-family="monospace" font-size="12" fill="#4b5563" text-anchor="start" font-weight="400" >Solid points: measured averages. Solid fit: n &gt;= 1024. Dashed: extrapolated to 262144.</text>
<rect x="88" y="72" width="842" height="606" fill="#ffffff" stroke="#d1d5db"/>
<line x1="88.0" y1="72" x2="88.0" y2="678" stroke="#e5e7eb"/>
<line x1="88.0" y1="678" x2="88.0" y2="684" stroke="#374151"/>
<text x="88.0" y="702.0" font-family="monospace" font-size="11" fill="#374151" text-anchor="middle" font-weight="400" >1</text>
<line x1="134.8" y1="72" x2="134.8" y2="678" stroke="#e5e7eb"/>
<line x1="134.8" y1="678" x2="134.8" y2="684" stroke="#374151"/>
<text x="134.8" y="702.0" font-family="monospace" font-size="11" fill="#374151" text-anchor="middle" font-weight="400" >2</text>
<line x1="181.6" y1="72" x2="181.6" y2="678" stroke="#e5e7eb"/>
<line x1="181.6" y1="678" x2="181.6" y2="684" stroke="#374151"/>
<text x="181.6" y="702.0" font-family="monospace" font-size="11" fill="#374151" text-anchor="middle" font-weight="400" >4</text>
<line x1="228.3" y1="72" x2="228.3" y2="678" stroke="#e5e7eb"/>
<line x1="228.3" y1="678" x2="228.3" y2="684" stroke="#374151"/>
<text x="228.3" y="702.0" font-family="monospace" font-size="11" fill="#374151" text-anchor="middle" font-weight="400" >8</text>
<line x1="275.1" y1="72" x2="275.1" y2="678" stroke="#e5e7eb"/>
<line x1="275.1" y1="678" x2="275.1" y2="684" stroke="#374151"/>
<text x="275.1" y="702.0" font-family="monospace" font-size="11" fill="#374151" text-anchor="middle" font-weight="400" >16</text>
<line x1="321.9" y1="72" x2="321.9" y2="678" stroke="#e5e7eb"/>
<line x1="321.9" y1="678" x2="321.9" y2="684" stroke="#374151"/>
<text x="321.9" y="702.0" font-family="monospace" font-size="11" fill="#374151" text-anchor="middle" font-weight="400" >32</text>
<line x1="368.7" y1="72" x2="368.7" y2="678" stroke="#e5e7eb"/>
<line x1="368.7" y1="678" x2="368.7" y2="684" stroke="#374151"/>
<text x="368.7" y="702.0" font-family="monospace" font-size="11" fill="#374151" text-anchor="middle" font-weight="400" >64</text>
<line x1="415.4" y1="72" x2="415.4" y2="678" stroke="#e5e7eb"/>
<line x1="415.4" y1="678" x2="415.4" y2="684" stroke="#374151"/>
<text x="415.4" y="702.0" font-family="monospace" font-size="11" fill="#374151" text-anchor="middle" font-weight="400" >128</text>
<line x1="462.2" y1="72" x2="462.2" y2="678" stroke="#e5e7eb"/>
<line x1="462.2" y1="678" x2="462.2" y2="684" stroke="#374151"/>
<text x="462.2" y="702.0" font-family="monospace" font-size="11" fill="#374151" text-anchor="middle" font-weight="400" >256</text>
<line x1="509.0" y1="72" x2="509.0" y2="678" stroke="#e5e7eb"/>
<line x1="509.0" y1="678" x2="509.0" y2="684" stroke="#374151"/>
<text x="509.0" y="702.0" font-family="monospace" font-size="11" fill="#374151" text-anchor="middle" font-weight="400" >512</text>
<line x1="555.8" y1="72" x2="555.8" y2="678" stroke="#e5e7eb"/>
<line x1="555.8" y1="678" x2="555.8" y2="684" stroke="#374151"/>
<text x="555.8" y="702.0" font-family="monospace" font-size="11" fill="#374151" text-anchor="middle" font-weight="400" >1024</text>
<line x1="602.6" y1="72" x2="602.6" y2="678" stroke="#e5e7eb"/>
<line x1="602.6" y1="678" x2="602.6" y2="684" stroke="#374151"/>
<text x="602.6" y="702.0" font-family="monospace" font-size="11" fill="#374151" text-anchor="middle" font-weight="400" >2048</text>
<line x1="649.3" y1="72" x2="649.3" y2="678" stroke="#e5e7eb"/>
<line x1="649.3" y1="678" x2="649.3" y2="684" stroke="#374151"/>
<text x="649.3" y="702.0" font-family="monospace" font-size="11" fill="#374151" text-anchor="middle" font-weight="400" >4096</text>
<line x1="696.1" y1="72" x2="696.1" y2="678" stroke="#e5e7eb"/>
<line x1="696.1" y1="678" x2="696.1" y2="684" stroke="#374151"/>
<text x="696.1" y="702.0" font-family="monospace" font-size="11" fill="#374151" text-anchor="middle" font-weight="400" >8192</text>
<line x1="742.9" y1="72" x2="742.9" y2="678" stroke="#e5e7eb"/>
<line x1="742.9" y1="678" x2="742.9" y2="684" stroke="#374151"/>
<text x="742.9" y="702.0" font-family="monospace" font-size="11" fill="#374151" text-anchor="middle" font-weight="400" >16384</text>
<line x1="789.7" y1="72" x2="789.7" y2="678" stroke="#e5e7eb"/>
<line x1="789.7" y1="678" x2="789.7" y2="684" stroke="#374151"/>
<text x="789.7" y="702.0" font-family="monospace" font-size="11" fill="#374151" text-anchor="middle" font-weight="400" >32768</text>
<line x1="836.4" y1="72" x2="836.4" y2="678" stroke="#e5e7eb"/>
<line x1="836.4" y1="678" x2="836.4" y2="684" stroke="#374151"/>
<text x="836.4" y="702.0" font-family="monospace" font-size="11" fill="#374151" text-anchor="middle" font-weight="400" >65536</text>
<line x1="883.2" y1="72" x2="883.2" y2="678" stroke="#e5e7eb"/>
<line x1="883.2" y1="678" x2="883.2" y2="684" stroke="#374151"/>
<text x="883.2" y="702.0" font-family="monospace" font-size="11" fill="#374151" text-anchor="middle" font-weight="400" >131072</text>
<line x1="930.0" y1="72" x2="930.0" y2="678" stroke="#e5e7eb"/>
<line x1="930.0" y1="678" x2="930.0" y2="684" stroke="#374151"/>
<text x="930.0" y="702.0" font-family="monospace" font-size="11" fill="#374151" text-anchor="middle" font-weight="400" >262144</text>
<line x1="88" y1="678.0" x2="930" y2="678.0" stroke="#e5e7eb"/>
<line x1="82" y1="678.0" x2="88" y2="678.0" stroke="#374151"/>
<text x="78.0" y="682.0" font-family="monospace" font-size="11" fill="#374151" text-anchor="end" font-weight="400" >1 us</text>
<line x1="88" y1="627.2" x2="930" y2="627.2" stroke="#e5e7eb"/>
<line x1="82" y1="627.2" x2="88" y2="627.2" stroke="#374151"/>
<text x="78.0" y="631.2" font-family="monospace" font-size="11" fill="#374151" text-anchor="end" font-weight="400" >10 us</text>
<line x1="88" y1="576.5" x2="930" y2="576.5" stroke="#e5e7eb"/>
<line x1="82" y1="576.5" x2="88" y2="576.5" stroke="#374151"/>
<text x="78.0" y="580.5" font-family="monospace" font-size="11" fill="#374151" text-anchor="end" font-weight="400" >100 us</text>
<line x1="88" y1="525.7" x2="930" y2="525.7" stroke="#e5e7eb"/>
<line x1="82" y1="525.7" x2="88" y2="525.7" stroke="#374151"/>
<text x="78.0" y="529.7" font-family="monospace" font-size="11" fill="#374151" text-anchor="end" font-weight="400" >1 ms</text>
<line x1="88" y1="474.9" x2="930" y2="474.9" stroke="#e5e7eb"/>
<line x1="82" y1="474.9" x2="88" y2="474.9" stroke="#374151"/>
<text x="78.0" y="478.9" font-family="monospace" font-size="11" fill="#374151" text-anchor="end" font-weight="400" >10 ms</text>
<line x1="88" y1="424.2" x2="930" y2="424.2" stroke="#e5e7eb"/>
<line x1="82" y1="424.2" x2="88" y2="424.2" stroke="#374151"/>
<text x="78.0" y="428.2" font-family="monospace" font-size="11" fill="#374151" text-anchor="end" font-weight="400" >100 ms</text>
<line x1="88" y1="373.4" x2="930" y2="373.4" stroke="#e5e7eb"/>
<line x1="82" y1="373.4" x2="88" y2="373.4" stroke="#374151"/>
<text x="78.0" y="377.4" font-family="monospace" font-size="11" fill="#374151" text-anchor="end" font-weight="400" >1 s</text>
<line x1="88" y1="322.6" x2="930" y2="322.6" stroke="#e5e7eb"/>
<line x1="82" y1="322.6" x2="88" y2="322.6" stroke="#374151"/>
<text x="78.0" y="326.6" font-family="monospace" font-size="11" fill="#374151" text-anchor="end" font-weight="400" >10 s</text>
<line x1="88" y1="283.1" x2="930" y2="283.1" stroke="#e5e7eb"/>
<line x1="82" y1="283.1" x2="88" y2="283.1" stroke="#374151"/>
<text x="78.0" y="287.1" font-family="monospace" font-size="11" fill="#374151" text-anchor="end" font-weight="400" >1 m</text>
<line x1="88" y1="232.3" x2="930" y2="232.3" stroke="#e5e7eb"/>
<line x1="82" y1="232.3" x2="88" y2="232.3" stroke="#374151"/>
<text x="78.0" y="236.3" font-family="monospace" font-size="11" fill="#374151" text-anchor="end" font-weight="400" >10 m</text>
<line x1="88" y1="192.8" x2="930" y2="192.8" stroke="#e5e7eb"/>
<line x1="82" y1="192.8" x2="88" y2="192.8" stroke="#374151"/>
<text x="78.0" y="196.8" font-family="monospace" font-size="11" fill="#374151" text-anchor="end" font-weight="400" >1 h</text>
<line x1="88" y1="142.1" x2="930" y2="142.1" stroke="#e5e7eb"/>
<line x1="82" y1="142.1" x2="88" y2="142.1" stroke="#374151"/>
<text x="78.0" y="146.1" font-family="monospace" font-size="11" fill="#374151" text-anchor="end" font-weight="400" >10 h</text>
<line x1="88" y1="122.8" x2="930" y2="122.8" stroke="#e5e7eb"/>
<line x1="82" y1="122.8" x2="88" y2="122.8" stroke="#374151"/>
<text x="78.0" y="126.8" font-family="monospace" font-size="11" fill="#374151" text-anchor="end" font-weight="400" >1 d</text>
<line x1="88" y1="72.0" x2="930" y2="72.0" stroke="#e5e7eb"/>
<line x1="82" y1="72.0" x2="88" y2="72.0" stroke="#374151"/>
<text x="78.0" y="76.0" font-family="monospace" font-size="11" fill="#374151" text-anchor="end" font-weight="400" >10 d</text>
<line x1="88" y1="678" x2="930" y2="678" stroke="#111827"/>
<line x1="88" y1="72" x2="88" y2="678" stroke="#111827"/>
<text x="509.0" y="732.0" font-family="monospace" font-size="13" fill="#111827" text-anchor="middle" font-weight="400" >cube side length n</text>
<text x="20.0" y="375.0" font-family="monospace" font-size="13" fill="#111827" text-anchor="middle" font-weight="400" transform="rotate(-90 20 375)">time</text>
<polyline points="555.8,468.2 696.1,377.1" fill="none" stroke="#4c78a8" stroke-width="2.2" stroke-linecap="round" stroke-linejoin="round"/>
<polyline points="696.1,377.1 930.0,225.3" fill="none" stroke="#4c78a8" stroke-width="2.2" stroke-linecap="round" stroke-linejoin="round" stroke-dasharray="7 5"/>
<polyline points="555.8,421.1 696.1,310.6" fill="none" stroke="#f58518" stroke-width="2.2" stroke-linecap="round" stroke-linejoin="round"/>
<polyline points="696.1,310.6 930.0,126.5" fill="none" stroke="#f58518" stroke-width="2.2" stroke-linecap="round" stroke-linejoin="round" stroke-dasharray="7 5"/>
<polyline points="555.8,512.2 696.1,459.0" fill="none" stroke="#54a24b" stroke-width="2.2" stroke-linecap="round" stroke-linejoin="round"/>
<polyline points="696.1,459.0 930.0,370.4" fill="none" stroke="#54a24b" stroke-width="2.2" stroke-linecap="round" stroke-linejoin="round" stroke-dasharray="7 5"/>
<polyline points="555.8,424.0 696.1,374.9" fill="none" stroke="#e45756" stroke-width="2.2" stroke-linecap="round" stroke-linejoin="round"/>
<polyline points="696.1,374.9 930.0,293.0" fill="none" stroke="#e45756" stroke-width="2.2" stroke-linecap="round" stroke-linejoin="round" stroke-dasharray="7 5"/>
<polyline points="555.8,399.5 696.1,294.1" fill="none" stroke="#72b7b2" stroke-width="2.2" stroke-linecap="round" stroke-linejoin="round"/>
<polyline points="696.1,294.1 930.0,118.4" fill="none" stroke="#72b7b2" stroke-width="2.2" stroke-linecap="round" stroke-linejoin="round" stroke-dasharray="7 5"/>
<polyline points="696.1,284.8 742.9,249.4 789.7,213.9 836.4,178.2 883.2,142.5 930.0,106.7" fill="none" stroke="#111827" stroke-width="2.2" stroke-linecap="round" stroke-linejoin="round" stroke-dasharray="7 5"/>
<polyline points="88.0,644.0 134.8,649.4 181.6,644.0 228.3,641.1 275.1,622.6 321.9,606.7 368.7,584.9 415.4,558.0 462.2,528.0 509.0,499.3 555.8,467.7 602.6,439.1 649.3,406.5 696.1,377.3" fill="none" stroke="#4c78a8" stroke-width="2.2" stroke-linecap="round" stroke-linejoin="round"/>
<circle cx="88.0" cy="644.0" r="3.4" fill="#4c78a8"/>
<circle cx="134.8" cy="649.4" r="3.4" fill="#4c78a8"/>
<circle cx="181.6" cy="644.0" r="3.4" fill="#4c78a8"/>
<circle cx="228.3" cy="641.1" r="3.4" fill="#4c78a8"/>
<circle cx="275.1" cy="622.6" r="3.4" fill="#4c78a8"/>
<circle cx="321.9" cy="606.7" r="3.4" fill="#4c78a8"/>
<circle cx="368.7" cy="584.9" r="3.4" fill="#4c78a8"/>
<circle cx="415.4" cy="558.0" r="3.4" fill="#4c78a8"/>
<circle cx="462.2" cy="528.0" r="3.4" fill="#4c78a8"/>
<circle cx="509.0" cy="499.3" r="3.4" fill="#4c78a8"/>
<circle cx="555.8" cy="467.7" r="3.4" fill="#4c78a8"/>
<circle cx="602.6" cy="439.1" r="3.4" fill="#4c78a8"/>
<circle cx="649.3" cy="406.5" r="3.4" fill="#4c78a8"/>
<circle cx="696.1" cy="377.3" r="3.4" fill="#4c78a8"/>
<polyline points="88.0,635.1 134.8,632.2 181.6,620.3 228.3,613.5 275.1,602.8 321.9,588.7 368.7,571.1 415.4,543.0 462.2,507.2 509.0,470.9 555.8,420.7 602.6,386.9 649.3,343.1 696.1,312.6" fill="none" stroke="#f58518" stroke-width="2.2" stroke-linecap="round" stroke-linejoin="round"/>
<circle cx="88.0" cy="635.1" r="3.4" fill="#f58518"/>
<circle cx="134.8" cy="632.2" r="3.4" fill="#f58518"/>
<circle cx="181.6" cy="620.3" r="3.4" fill="#f58518"/>
<circle cx="228.3" cy="613.5" r="3.4" fill="#f58518"/>
<circle cx="275.1" cy="602.8" r="3.4" fill="#f58518"/>
<circle cx="321.9" cy="588.7" r="3.4" fill="#f58518"/>
<circle cx="368.7" cy="571.1" r="3.4" fill="#f58518"/>
<circle cx="415.4" cy="543.0" r="3.4" fill="#f58518"/>
<circle cx="462.2" cy="507.2" r="3.4" fill="#f58518"/>
<circle cx="509.0" cy="470.9" r="3.4" fill="#f58518"/>
<circle cx="555.8" cy="420.7" r="3.4" fill="#f58518"/>
<circle cx="602.6" cy="386.9" r="3.4" fill="#f58518"/>
<circle cx="649.3" cy="343.1" r="3.4" fill="#f58518"/>
<circle cx="696.1" cy="312.6" r="3.4" fill="#f58518"/>
<polyline points="88.0,678.0 134.8,564.1 181.6,565.7 228.3,566.1 275.1,564.4 321.9,563.3 368.7,563.3 415.4,561.2 462.2,553.8 509.0,538.1 555.8,513.3 602.6,494.2 649.3,473.9 696.1,460.9" fill="none" stroke="#54a24b" stroke-width="2.2" stroke-linecap="round" stroke-linejoin="round"/>
<circle cx="88.0" cy="678.0" r="3.4" fill="#54a24b"/>
<circle cx="134.8" cy="564.1" r="3.4" fill="#54a24b"/>
<circle cx="181.6" cy="565.7" r="3.4" fill="#54a24b"/>
<circle cx="228.3" cy="566.1" r="3.4" fill="#54a24b"/>
<circle cx="275.1" cy="564.4" r="3.4" fill="#54a24b"/>
<circle cx="321.9" cy="563.3" r="3.4" fill="#54a24b"/>
<circle cx="368.7" cy="563.3" r="3.4" fill="#54a24b"/>
<circle cx="415.4" cy="561.2" r="3.4" fill="#54a24b"/>
<circle cx="462.2" cy="553.8" r="3.4" fill="#54a24b"/>
<circle cx="509.0" cy="538.1" r="3.4" fill="#54a24b"/>
<circle cx="555.8" cy="513.3" r="3.4" fill="#54a24b"/>
<circle cx="602.6" cy="494.2" r="3.4" fill="#54a24b"/>
<circle cx="649.3" cy="473.9" r="3.4" fill="#54a24b"/>
<circle cx="696.1" cy="460.9" r="3.4" fill="#54a24b"/>
<polyline points="88.0,662.7 134.8,678.0 181.6,499.5 228.3,501.5 275.1,496.2 321.9,489.0 368.7,478.3 415.4,466.9 462.2,452.0 509.0,438.3 555.8,423.7 602.6,407.5 649.3,392.5 696.1,374.1" fill="none" stroke="#e45756" stroke-width="2.2" stroke-linecap="round" stroke-linejoin="round"/>
<circle cx="88.0" cy="662.7" r="3.4" fill="#e45756"/>
<circle cx="134.8" cy="678.0" r="3.4" fill="#e45756"/>
<circle cx="181.6" cy="499.5" r="3.4" fill="#e45756"/>
<circle cx="228.3" cy="501.5" r="3.4" fill="#e45756"/>
<circle cx="275.1" cy="496.2" r="3.4" fill="#e45756"/>
<circle cx="321.9" cy="489.0" r="3.4" fill="#e45756"/>
<circle cx="368.7" cy="478.3" r="3.4" fill="#e45756"/>
<circle cx="415.4" cy="466.9" r="3.4" fill="#e45756"/>
<circle cx="462.2" cy="452.0" r="3.4" fill="#e45756"/>
<circle cx="509.0" cy="438.3" r="3.4" fill="#e45756"/>
<circle cx="555.8" cy="423.7" r="3.4" fill="#e45756"/>
<circle cx="602.6" cy="407.5" r="3.4" fill="#e45756"/>
<circle cx="649.3" cy="392.5" r="3.4" fill="#e45756"/>
<circle cx="696.1" cy="374.1" r="3.4" fill="#e45756"/>
<polyline points="88.0,618.8 134.8,619.3 181.6,601.1 228.3,585.8 275.1,564.5 321.9,542.1 368.7,516.7 415.4,489.8 462.2,460.8 509.0,432.3 555.8,401.1 602.6,363.1 649.3,326.8 696.1,296.1" fill="none" stroke="#72b7b2" stroke-width="2.2" stroke-linecap="round" stroke-linejoin="round"/>
<circle cx="88.0" cy="618.8" r="3.4" fill="#72b7b2"/>
<circle cx="134.8" cy="619.3" r="3.4" fill="#72b7b2"/>
<circle cx="181.6" cy="601.1" r="3.4" fill="#72b7b2"/>
<circle cx="228.3" cy="585.8" r="3.4" fill="#72b7b2"/>
<circle cx="275.1" cy="564.5" r="3.4" fill="#72b7b2"/>
<circle cx="321.9" cy="542.1" r="3.4" fill="#72b7b2"/>
<circle cx="368.7" cy="516.7" r="3.4" fill="#72b7b2"/>
<circle cx="415.4" cy="489.8" r="3.4" fill="#72b7b2"/>
<circle cx="462.2" cy="460.8" r="3.4" fill="#72b7b2"/>
<circle cx="509.0" cy="432.3" r="3.4" fill="#72b7b2"/>
<circle cx="555.8" cy="401.1" r="3.4" fill="#72b7b2"/>
<circle cx="602.6" cy="363.1" r="3.4" fill="#72b7b2"/>
<circle cx="649.3" cy="326.8" r="3.4" fill="#72b7b2"/>
<circle cx="696.1" cy="296.1" r="3.4" fill="#72b7b2"/>
<polyline points="88.0,603.5 134.8,560.9 181.6,498.1 228.3,499.8 275.1,494.0 321.9,486.1 368.7,474.0 415.4,459.3 462.2,439.1 509.0,417.1 555.8,387.9 602.6,354.0 649.3,317.0 696.1,286.8" fill="none" stroke="#111827" stroke-width="2.2" stroke-linecap="round" stroke-linejoin="round"/>
<rect x="84.2" y="599.7" width="7.6" height="7.6" fill="#111827"/>
<rect x="131.0" y="557.1" width="7.6" height="7.6" fill="#111827"/>
<rect x="177.8" y="494.3" width="7.6" height="7.6" fill="#111827"/>
<rect x="224.5" y="496.0" width="7.6" height="7.6" fill="#111827"/>
<rect x="271.3" y="490.2" width="7.6" height="7.6" fill="#111827"/>
<rect x="318.1" y="482.3" width="7.6" height="7.6" fill="#111827"/>
<rect x="364.9" y="470.2" width="7.6" height="7.6" fill="#111827"/>
<rect x="411.6" y="455.5" width="7.6" height="7.6" fill="#111827"/>
<rect x="458.4" y="435.3" width="7.6" height="7.6" fill="#111827"/>
<rect x="505.2" y="413.3" width="7.6" height="7.6" fill="#111827"/>
<rect x="552.0" y="384.1" width="7.6" height="7.6" fill="#111827"/>
<rect x="598.8" y="350.2" width="7.6" height="7.6" fill="#111827"/>
<rect x="645.5" y="313.2" width="7.6" height="7.6" fill="#111827"/>
<rect x="692.3" y="283.0" width="7.6" height="7.6" fill="#111827"/>
<text x="966.0" y="76.0" font-family="monospace" font-size="13" fill="#111827" text-anchor="start" font-weight="700" >series</text>
<line x1="966" y1="90.0" x2="990" y2="90.0" stroke="#4c78a8" stroke-width="3"/>
<text x="1000.0" y="94.0" font-family="monospace" font-size="12" fill="#111827" text-anchor="start" font-weight="400" >init</text>
<line x1="966" y1="115.0" x2="990" y2="115.0" stroke="#f58518" stroke-width="3"/>
<text x="1000.0" y="119.0" font-family="monospace" font-size="12" fill="#111827" text-anchor="start" font-weight="400" >scramble</text>
<line x1="966" y1="140.0" x2="990" y2="140.0" stroke="#54a24b" stroke-width="3"/>
<text x="1000.0" y="144.0" font-family="monospace" font-size="12" fill="#111827" text-anchor="start" font-weight="400" >corner</text>
<line x1="966" y1="165.0" x2="990" y2="165.0" stroke="#e45756" stroke-width="3"/>
<text x="1000.0" y="169.0" font-family="monospace" font-size="12" fill="#111827" text-anchor="start" font-weight="400" >edge</text>
<line x1="966" y1="190.0" x2="990" y2="190.0" stroke="#72b7b2" stroke-width="3"/>
<text x="1000.0" y="194.0" font-family="monospace" font-size="12" fill="#111827" text-anchor="start" font-weight="400" >center</text>
<line x1="966" y1="215.0" x2="990" y2="215.0" stroke="#111827" stroke-width="3"/>
<text x="1000.0" y="219.0" font-family="monospace" font-size="12" fill="#111827" text-anchor="start" font-weight="400" >total</text>
<text x="966.0" y="262.0" font-family="monospace" font-size="13" fill="#111827" text-anchor="start" font-weight="700" >fit exponents</text>
<text x="966.0" y="284.0" font-family="monospace" font-size="11" fill="#374151" text-anchor="start" font-weight="400" >init: O(n^1.99)</text>
<text x="966.0" y="303.0" font-family="monospace" font-size="11" fill="#374151" text-anchor="start" font-weight="400" >scramble: O(n^2.41)</text>
<text x="966.0" y="322.0" font-family="monospace" font-size="11" fill="#374151" text-anchor="start" font-weight="400" >corner: O(n^1.16)</text>
<text x="966.0" y="341.0" font-family="monospace" font-size="11" fill="#374151" text-anchor="start" font-weight="400" >edge: O(n^1.07)</text>
<text x="966.0" y="360.0" font-family="monospace" font-size="11" fill="#374151" text-anchor="start" font-weight="400" >center: O(n^2.30)</text>
</svg>
