<svg xmlns="http://www.w3.org/2000/svg" width="1200" height="760" viewBox="0 0 1200 760">
<rect width="1200" height="760" fill="#fbfaf7"/>
<text x="42.0" y="38.0" font-family="monospace" font-size="18" fill="#111827" text-anchor="start" font-weight="700" >Stage runtime scaling - backend=byte, mode=optimized, attempts=3</text>
<text x="42.0" y="58.0" font-family="monospace" font-size="12" fill="#4b5563" text-anchor="start" font-weight="400" >Solid points: measured averages. Solid fit: n &gt;= 1024. Dashed: extrapolated to 262144.</text>
<rect x="88" y="72" width="842" height="606" fill="#ffffff" stroke="#d1d5db"/>
<line x1="88.0" y1="72" x2="88.0" y2="678" stroke="#e5e7eb"/>
<line x1="88.0" y1="678" x2="88.0" y2="684" stroke="#374151"/>
<text x="88.0" y="702.0" font-family="monospace" font-size="11" fill="#374151" text-anchor="middle" font-weight="400" >1</text>
<line x1="134.8" y1="72" x2="134.8" y2="678" stroke="#e5e7eb"/>
<line x1="134.8" y1="678" x2="134.8" y2="684" stroke="#374151"/>
<text x="134.8" y="702.0" font-family="monospace" font-size="11" fill="#374151" text-anchor="middle" font-weight="400" >2</text>
<line x1="181.6" y1="72" x2="181.6" y2="678" stroke="#e5e7eb"/>
<line x1="181.6" y1="678" x2="181.6" y2="684" stroke="#374151"/>
<text x="181.6" y="702.0" font-family="monospace" font-size="11" fill="#374151" text-anchor="middle" font-weight="400" >4</text>
<line x1="228.3" y1="72" x2="228.3" y2="678" stroke="#e5e7eb"/>
<line x1="228.3" y1="678" x2="228.3" y2="684" stroke="#374151"/>
<text x="228.3" y="702.0" font-family="monospace" font-size="11" fill="#374151" text-anchor="middle" font-weight="400" >8</text>
<line x1="275.1" y1="72" x2="275.1" y2="678" stroke="#e5e7eb"/>
<line x1="275.1" y1="678" x2="275.1" y2="684" stroke="#374151"/>
<text x="275.1" y="702.0" font-family="monospace" font-size="11" fill="#374151" text-anchor="middle" font-weight="400" >16</text>
<line x1="321.9" y1="72" x2="321.9" y2="678" stroke="#e5e7eb"/>
<line x1="321.9" y1="678" x2="321.9" y2="684" stroke="#374151"/>
<text x="321.9" y="702.0" font-family="monospace" font-size="11" fill="#374151" text-anchor="middle" font-weight="400" >32</text>
<line x1="368.7" y1="72" x2="368.7" y2="678" stroke="#e5e7eb"/>
<line x1="368.7" y1="678" x2="368.7" y2="684" stroke="#374151"/>
<text x="368.7" y="702.0" font-family="monospace" font-size="11" fill="#374151" text-anchor="middle" font-weight="400" >64</text>
<line x1="415.4" y1="72" x2="415.4" y2="678" stroke="#e5e7eb"/>
<line x1="415.4" y1="678" x2="415.4" y2="684" stroke="#374151"/>
<text x="415.4" y="702.0" font-family="monospace" font-size="11" fill="#374151" text-anchor="middle" font-weight="400" >128</text>
<line x1="462.2" y1="72" x2="462.2" y2="678" stroke="#e5e7eb"/>
<line x1="462.2" y1="678" x2="462.2" y2="684" stroke="#374151"/>
<text x="462.2" y="702.0" font-family="monospace" font-size="11" fill="#374151" text-anchor="middle" font-weight="400" >256</text>
<line x1="509.0" y1="72" x2="509.0" y2="678" stroke="#e5e7eb"/>
<line x1="509.0" y1="678" x2="509.0" y2="684" stroke="#374151"/>
<text x="509.0" y="702.0" font-family="monospace" font-size="11" fill="#374151" text-anchor="middle" font-weight="400" >512</text>
<line x1="555.8" y1="72" x2="555.8" y2="678" stroke="#e5e7eb"/>
<line x1="555.8" y1="678" x2="555.8" y2="684" stroke="#374151"/>
<text x="555.8" y="702.0" font-family="monospace" font-size="11" fill="#374151" text-anchor="middle" font-weight="400" >1024</text>
<line x1="602.6" y1="72" x2="602.6" y2="678" stroke="#e5e7eb"/>
<line x1="602.6" y1="678" x2="602.6" y2="684" stroke="#374151"/>
<text x="602.6" y="702.0" font-family="monospace" font-size="11" fill="#374151" text-anchor="middle" font-weight="400" >2048</text>
<line x1="649.3" y1="72" x2="649.3" y2="678" stroke="#e5e7eb"/>
<line x1="649.3" y1="678" x2="649.3" y2="684" stroke="#374151"/>
<text x="649.3" y="702.0" font-family="monospace" font-size="11" fill="#374151" text-anchor="middle" font-weight="400" >4096</text>
<line x1="696.1" y1="72" x2="696.1" y2="678" stroke="#e5e7eb"/>
<line x1="696.1" y1="678" x2="696.1" y2="684" stroke="#374151"/>
<text x="696.1" y="702.0" font-family="monospace" font-size="11" fill="#374151" text-anchor="middle" font-weight="400" >8192</text>
<line x1="742.9" y1="72" x2="742.9" y2="678" stroke="#e5e7eb"/>
<line x1="742.9" y1="678" x2="742.9" y2="684" stroke="#374151"/>
<text x="742.9" y="702.0" font-family="monospace" font-size="11" fill="#374151" text-anchor="middle" font-weight="400" >16384</text>
<line x1="789.7" y1="72" x2="789.7" y2="678" stroke="#e5e7eb"/>
<line x1="789.7" y1="678" x2="789.7" y2="684" stroke="#374151"/>
<text x="789.7" y="702.0" font-family="monospace" font-size="11" fill="#374151" text-anchor="middle" font-weight="400" >32768</text>
<line x1="836.4" y1="72" x2="836.4" y2="678" stroke="#e5e7eb"/>
<line x1="836.4" y1="678" x2="836.4" y2="684" stroke="#374151"/>
<text x="836.4" y="702.0" font-family="monospace" font-size="11" fill="#374151" text-anchor="middle" font-weight="400" >65536</text>
<line x1="883.2" y1="72" x2="883.2" y2="678" stroke="#e5e7eb"/>
<line x1="883.2" y1="678" x2="883.2" y2="684" stroke="#374151"/>
<text x="883.2" y="702.0" font-family="monospace" font-size="11" fill="#374151" text-anchor="middle" font-weight="400" >131072</text>
<line x1="930.0" y1="72" x2="930.0" y2="678" stroke="#e5e7eb"/>
<line x1="930.0" y1="678" x2="930.0" y2="684" stroke="#374151"/>
<text x="930.0" y="702.0" font-family="monospace" font-size="11" fill="#374151" text-anchor="middle" font-weight="400" >262144</text>
<line x1="88" y1="678.0" x2="930" y2="678.0" stroke="#e5e7eb"/>
<line x1="82" y1="678.0" x2="88" y2="678.0" stroke="#374151"/>
<text x="78.0" y="682.0" font-family="monospace" font-size="11" fill="#374151" text-anchor="end" font-weight="400" >1 us</text>
<line x1="88" y1="627.2" x2="930" y2="627.2" stroke="#e5e7eb"/>
<line x1="82" y1="627.2" x2="88" y2="627.2" stroke="#374151"/>
<text x="78.0" y="631.2" font-family="monospace" font-size="11" fill="#374151" text-anchor="end" font-weight="400" >10 us</text>
<line x1="88" y1="576.5" x2="930" y2="576.5" stroke="#e5e7eb"/>
<line x1="82" y1="576.5" x2="88" y2="576.5" stroke="#374151"/>
<text x="78.0" y="580.5" font-family="monospace" font-size="11" fill="#374151" text-anchor="end" font-weight="400" >100 us</text>
<line x1="88" y1="525.7" x2="930" y2="525.7" stroke="#e5e7eb"/>
<line x1="82" y1="525.7" x2="88" y2="525.7" stroke="#374151"/>
<text x="78.0" y="529.7" font-family="monospace" font-size="11" fill="#374151" text-anchor="end" font-weight="400" >1 ms</text>
<line x1="88" y1="474.9" x2="930" y2="474.9" stroke="#e5e7eb"/>
<line x1="82" y1="474.9" x2="88" y2="474.9" stroke="#374151"/>
<text x="78.0" y="478.9" font-family="monospace" font-size="11" fill="#374151" text-anchor="end" font-weight="400" >10 ms</text>
<line x1="88" y1="424.2" x2="930" y2="424.2" stroke="#e5e7eb"/>
<line x1="82" y1="424.2" x2="88" y2="424.2" stroke="#374151"/>
<text x="78.0" y="428.2" font-family="monospace" font-size="11" fill="#374151" text-anchor="end" font-weight="400" >100 ms</text>
<line x1="88" y1="373.4" x2="930" y2="373.4" stroke="#e5e7eb"/>
<line x1="82" y1="373.4" x2="88" y2="373.4" stroke="#374151"/>
<text x="78.0" y="377.4" font-family="monospace" font-size="11" fill="#374151" text-anchor="end" font-weight="400" >1 s</text>
<line x1="88" y1="322.6" x2="930" y2="322.6" stroke="#e5e7eb"/>
<line x1="82" y1="322.6" x2="88" y2="322.6" stroke="#374151"/>
<text x="78.0" y="326.6" font-family="monospace" font-size="11" fill="#374151" text-anchor="end" font-weight="400" >10 s</text>
<line x1="88" y1="283.1" x2="930" y2="283.1" stroke="#e5e7eb"/>
<line x1="82" y1="283.1" x2="88" y2="283.1" stroke="#374151"/>
<text x="78.0" y="287.1" font-family="monospace" font-size="11" fill="#374151" text-anchor="end" font-weight="400" >1 m</text>
<line x1="88" y1="232.3" x2="930" y2="232.3" stroke="#e5e7eb"/>
<line x1="82" y1="232.3" x2="88" y2="232.3" stroke="#374151"/>
<text x="78.0" y="236.3" font-family="monospace" font-size="11" fill="#374151" text-anchor="end" font-weight="400" >10 m</text>
<line x1="88" y1="192.8" x2="930" y2="192.8" stroke="#e5e7eb"/>
<line x1="82" y1="192.8" x2="88" y2="192.8" stroke="#374151"/>
<text x="78.0" y="196.8" font-family="monospace" font-size="11" fill="#374151" text-anchor="end" font-weight="400" >1 h</text>
<line x1="88" y1="142.1" x2="930" y2="142.1" stroke="#e5e7eb"/>
<line x1="82" y1="142.1" x2="88" y2="142.1" stroke="#374151"/>
<text x="78.0" y="146.1" font-family="monospace" font-size="11" fill="#374151" text-anchor="end" font-weight="400" >10 h</text>
<line x1="88" y1="122.8" x2="930" y2="122.8" stroke="#e5e7eb"/>
<line x1="82" y1="122.8" x2="88" y2="122.8" stroke="#374151"/>
<text x="78.0" y="126.8" font-family="monospace" font-size="11" fill="#374151" text-anchor="end" font-weight="400" >1 d</text>
<line x1="88" y1="72.0" x2="930" y2="72.0" stroke="#e5e7eb"/>
<line x1="82" y1="72.0" x2="88" y2="72.0" stroke="#374151"/>
<text x="78.0" y="76.0" font-family="monospace" font-size="11" fill="#374151" text-anchor="end" font-weight="400" >10 d</text>
<line x1="88" y1="678" x2="930" y2="678" stroke="#111827"/>
<line x1="88" y1="72" x2="88" y2="678" stroke="#111827"/>
<text x="509.0" y="732.0" font-family="monospace" font-size="13" fill="#111827" text-anchor="middle" font-weight="400" >cube side length n</text>
<text x="20.0" y="375.0" font-family="monospace" font-size="13" fill="#111827" text-anchor="middle" font-weight="400" transform="rotate(-90 20 375)">time</text>
<polyline points="555.8,469.9 696.1,378.0" fill="none" stroke="#4c78a8" stroke-width="2.2" stroke-linecap="round" stroke-linejoin="round"/>
<polyline points="696.1,378.0 930.0,225.0" fill="none" stroke="#4c78a8" stroke-width="2.2" stroke-linecap="round" stroke-linejoin="round" stroke-dasharray="7 5"/>
<polyline points="555.8,436.2 696.1,335.7" fill="none" stroke="#f58518" stroke-width="2.2" stroke-linecap="round" stroke-linejoin="round"/>
<polyline points="696.1,335.7 930.0,168.0" fill="none" stroke="#f58518" stroke-width="2.2" stroke-linecap="round" stroke-linejoin="round" stroke-dasharray="7 5"/>
<polyline points="555.8,511.7 696.1,458.9" fill="none" stroke="#54a24b" stroke-width="2.2" stroke-linecap="round" stroke-linejoin="round"/>
<polyline points="696.1,458.9 930.0,371.0" fill="none" stroke="#54a24b" stroke-width="2.2" stroke-linecap="round" stroke-linejoin="round" stroke-dasharray="7 5"/>
<polyline points="555.8,424.6 696.1,378.9" fill="none" stroke="#e45756" stroke-width="2.2" stroke-linecap="round" stroke-linejoin="round"/>
<polyline points="696.1,378.9 930.0,302.8" fill="none" stroke="#e45756" stroke-width="2.2" stroke-linecap="round" stroke-linejoin="round" stroke-dasharray="7 5"/>
<polyline points="555.8,402.5 696.1,295.8" fill="none" stroke="#72b7b2" stroke-width="2.2" stroke-linecap="round" stroke-linejoin="round"/>
<polyline points="696.1,295.8 930.0,117.9" fill="none" stroke="#72b7b2" stroke-width="2.2" stroke-linecap="round" stroke-linejoin="round" stroke-dasharray="7 5"/>
<polyline points="696.1,291.5 742.9,256.6 789.7,221.5 836.4,186.2 883.2,150.9 930.0,115.6" fill="none" stroke="#111827" stroke-width="2.2" stroke-linecap="round" stroke-linejoin="round" stroke-dasharray="7 5"/>
<polyline points="88.0,671.7 134.8,671.7 181.6,662.7 228.3,656.4 275.1,645.7 321.9,616.9 368.7,585.1 415.4,557.4 462.2,528.2 509.0,500.0 555.8,469.7 602.6,439.7 649.3,408.3 696.1,378.1" fill="none" stroke="#4c78a8" stroke-width="2.2" stroke-linecap="round" stroke-linejoin="round"/>
<circle cx="88.0" cy="671.7" r="3.4" fill="#4c78a8"/>
<circle cx="134.8" cy="671.7" r="3.4" fill="#4c78a8"/>
<circle cx="181.6" cy="662.7" r="3.4" fill="#4c78a8"/>
<circle cx="228.3" cy="656.4" r="3.4" fill="#4c78a8"/>
<circle cx="275.1" cy="645.7" r="3.4" fill="#4c78a8"/>
<circle cx="321.9" cy="616.9" r="3.4" fill="#4c78a8"/>
<circle cx="368.7" cy="585.1" r="3.4" fill="#4c78a8"/>
<circle cx="415.4" cy="557.4" r="3.4" fill="#4c78a8"/>
<circle cx="462.2" cy="528.2" r="3.4" fill="#4c78a8"/>
<circle cx="509.0" cy="500.0" r="3.4" fill="#4c78a8"/>
<circle cx="555.8" cy="469.7" r="3.4" fill="#4c78a8"/>
<circle cx="602.6" cy="439.7" r="3.4" fill="#4c78a8"/>
<circle cx="649.3" cy="408.3" r="3.4" fill="#4c78a8"/>
<circle cx="696.1" cy="378.1" r="3.4" fill="#4c78a8"/>
<polyline points="88.0,606.4 134.8,601.8 181.6,597.0 228.3,593.3 275.1,592.3 321.9,584.3 368.7,568.0 415.4,481.5 462.2,467.4 509.0,449.0 555.8,433.0 602.6,407.0 649.3,370.3 696.1,333.5" fill="none" stroke="#f58518" stroke-width="2.2" stroke-linecap="round" stroke-linejoin="round"/>
<circle cx="88.0" cy="606.4" r="3.4" fill="#f58518"/>
<circle cx="134.8" cy="601.8" r="3.4" fill="#f58518"/>
<circle cx="181.6" cy="597.0" r="3.4" fill="#f58518"/>
<circle cx="228.3" cy="593.3" r="3.4" fill="#f58518"/>
<circle cx="275.1" cy="592.3" r="3.4" fill="#f58518"/>
<circle cx="321.9" cy="584.3" r="3.4" fill="#f58518"/>
<circle cx="368.7" cy="568.0" r="3.4" fill="#f58518"/>
<circle cx="415.4" cy="481.5" r="3.4" fill="#f58518"/>
<circle cx="462.2" cy="467.4" r="3.4" fill="#f58518"/>
<circle cx="509.0" cy="449.0" r="3.4" fill="#f58518"/>
<circle cx="555.8" cy="433.0" r="3.4" fill="#f58518"/>
<circle cx="602.6" cy="407.0" r="3.4" fill="#f58518"/>
<circle cx="649.3" cy="370.3" r="3.4" fill="#f58518"/>
<circle cx="696.1" cy="333.5" r="3.4" fill="#f58518"/>
<polyline points="88.0,678.0 134.8,565.2 181.6,566.8 228.3,565.6 275.1,563.7 321.9,564.3 368.7,563.5 415.4,560.6 462.2,555.5 509.0,537.8 555.8,513.1 602.6,492.1 649.3,476.3 696.1,459.7" fill="none" stroke="#54a24b" stroke-width="2.2" stroke-linecap="round" stroke-linejoin="round"/>
<circle cx="88.0" cy="678.0" r="3.4" fill="#54a24b"/>
<circle cx="134.8" cy="565.2" r="3.4" fill="#54a24b"/>
<circle cx="181.6" cy="566.8" r="3.4" fill="#54a24b"/>
<circle cx="228.3" cy="565.6" r="3.4" fill="#54a24b"/>
<circle cx="275.1" cy="563.7" r="3.4" fill="#54a24b"/>
<circle cx="321.9" cy="564.3" r="3.4" fill="#54a24b"/>
<circle cx="368.7" cy="563.5" r="3.4" fill="#54a24b"/>
<circle cx="415.4" cy="560.6" r="3.4" fill="#54a24b"/>
<circle cx="462.2" cy="555.5" r="3.4" fill="#54a24b"/>
<circle cx="509.0" cy="537.8" r="3.4" fill="#54a24b"/>
<circle cx="555.8" cy="513.1" r="3.4" fill="#54a24b"/>
<circle cx="602.6" cy="492.1" r="3.4" fill="#54a24b"/>
<circle cx="649.3" cy="476.3" r="3.4" fill="#54a24b"/>
<circle cx="696.1" cy="459.7" r="3.4" fill="#54a24b"/>
<polyline points="88.0,678.0 134.8,678.0 181.6,500.4 228.3,500.3 275.1,496.6 321.9,489.3 368.7,479.3 415.4,467.2 462.2,454.0 509.0,439.2 555.8,424.4 602.6,409.4 649.3,394.3 696.1,378.8" fill="none" stroke="#e45756" stroke-width="2.2" stroke-linecap="round" stroke-linejoin="round"/>
<circle cx="88.0" cy="678.0" r="3.4" fill="#e45756"/>
<circle cx="134.8" cy="678.0" r="3.4" fill="#e45756"/>
<circle cx="181.6" cy="500.4" r="3.4" fill="#e45756"/>
<circle cx="228.3" cy="500.3" r="3.4" fill="#e45756"/>
<circle cx="275.1" cy="496.6" r="3.4" fill="#e45756"/>
<circle cx="321.9" cy="489.3" r="3.4" fill="#e45756"/>
<circle cx="368.7" cy="479.3" r="3.4" fill="#e45756"/>
<circle cx="415.4" cy="467.2" r="3.4" fill="#e45756"/>
<circle cx="462.2" cy="454.0" r="3.4" fill="#e45756"/>
<circle cx="509.0" cy="439.2" r="3.4" fill="#e45756"/>
<circle cx="555.8" cy="424.4" r="3.4" fill="#e45756"/>
<circle cx="602.6" cy="409.4" r="3.4" fill="#e45756"/>
<circle cx="649.3" cy="394.3" r="3.4" fill="#e45756"/>
<circle cx="696.1" cy="378.8" r="3.4" fill="#e45756"/>
<polyline points="88.0,628.0 134.8,626.5 181.6,608.9 228.3,588.6 275.1,567.8 321.9,542.2 368.7,517.9 415.4,491.4 462.2,462.8 509.0,433.9 555.8,403.2 602.6,366.4 649.3,330.1 696.1,296.8" fill="none" stroke="#72b7b2" stroke-width="2.2" stroke-linecap="round" stroke-linejoin="round"/>
<circle cx="88.0" cy="628.0" r="3.4" fill="#72b7b2"/>
<circle cx="134.8" cy="626.5" r="3.4" fill="#72b7b2"/>
<circle cx="181.6" cy="608.9" r="3.4" fill="#72b7b2"/>
<circle cx="228.3" cy="588.6" r="3.4" fill="#72b7b2"/>
<circle cx="275.1" cy="567.8" r="3.4" fill="#72b7b2"/>
<circle cx="321.9" cy="542.2" r="3.4" fill="#72b7b2"/>
<circle cx="368.7" cy="517.9" r="3.4" fill="#72b7b2"/>
<circle cx="415.4" cy="491.4" r="3.4" fill="#72b7b2"/>
<circle cx="462.2" cy="462.8" r="3.4" fill="#72b7b2"/>
<circle cx="509.0" cy="433.9" r="3.4" fill="#72b7b2"/>
<circle cx="555.8" cy="403.2" r="3.4" fill="#72b7b2"/>
<circle cx="602.6" cy="366.4" r="3.4" fill="#72b7b2"/>
<circle cx="649.3" cy="330.1" r="3.4" fill="#72b7b2"/>
<circle cx="696.1" cy="296.8" r="3.4" fill="#72b7b2"/>
<polyline points="88.0,597.4 134.8,560.0 181.6,498.9 228.3,498.5 275.1,494.5 321.9,486.4 368.7,474.9 415.4,453.2 462.2,436.0 509.0,415.0 555.8,391.6 602.6,359.9 649.3,325.2 696.1,292.0" fill="none" stroke="#111827" stroke-width="2.2" stroke-linecap="round" stroke-linejoin="round"/>
<rect x="84.2" y="593.6" width="7.6" height="7.6" fill="#111827"/>
<rect x="131.0" y="556.2" width="7.6" height="7.6" fill="#111827"/>
<rect x="177.8" y="495.1" width="7.6" height="7.6" fill="#111827"/>
<rect x="224.5" y="494.7" width="7.6" height="7.6" fill="#111827"/>
<rect x="271.3" y="490.7" width="7.6" height="7.6" fill="#111827"/>
<rect x="318.1" y="482.6" width="7.6" height="7.6" fill="#111827"/>
<rect x="364.9" y="471.1" width="7.6" height="7.6" fill="#111827"/>
<rect x="411.6" y="449.4" width="7.6" height="7.6" fill="#111827"/>
<rect x="458.4" y="432.2" width="7.6" height="7.6" fill="#111827"/>
<rect x="505.2" y="411.2" width="7.6" height="7.6" fill="#111827"/>
<rect x="552.0" y="387.8" width="7.6" height="7.6" fill="#111827"/>
<rect x="598.8" y="356.1" width="7.6" height="7.6" fill="#111827"/>
<rect x="645.5" y="321.4" width="7.6" height="7.6" fill="#111827"/>
<rect x="692.3" y="288.2" width="7.6" height="7.6" fill="#111827"/>
<text x="966.0" y="76.0" font-family="monospace" font-size="13" fill="#111827" text-anchor="start" font-weight="700" >series</text>
<line x1="966" y1="90.0" x2="990" y2="90.0" stroke="#4c78a8" stroke-width="3"/>
<text x="1000.0" y="94.0" font-family="monospace" font-size="12" fill="#111827" text-anchor="start" font-weight="400" >init</text>
<line x1="966" y1="115.0" x2="990" y2="115.0" stroke="#f58518" stroke-width="3"/>
<text x="1000.0" y="119.0" font-family="monospace" font-size="12" fill="#111827" text-anchor="start" font-weight="400" >scramble</text>
<line x1="966" y1="140.0" x2="990" y2="140.0" stroke="#54a24b" stroke-width="3"/>
<text x="1000.0" y="144.0" font-family="monospace" font-size="12" fill="#111827" text-anchor="start" font-weight="400" >corner</text>
<line x1="966" y1="165.0" x2="990" y2="165.0" stroke="#e45756" stroke-width="3"/>
<text x="1000.0" y="169.0" font-family="monospace" font-size="12" fill="#111827" text-anchor="start" font-weight="400" >edge</text>
<line x1="966" y1="190.0" x2="990" y2="190.0" stroke="#72b7b2" stroke-width="3"/>
<text x="1000.0" y="194.0" font-family="monospace" font-size="12" fill="#111827" text-anchor="start" font-weight="400" >center</text>
<line x1="966" y1="215.0" x2="990" y2="215.0" stroke="#111827" stroke-width="3"/>
<text x="1000.0" y="219.0" font-family="monospace" font-size="12" fill="#111827" text-anchor="start" font-weight="400" >total</text>
<text x="966.0" y="262.0" font-family="monospace" font-size="13" fill="#111827" text-anchor="start" font-weight="700" >fit exponents</text>
<text x="966.0" y="284.0" font-family="monospace" font-size="11" fill="#374151" text-anchor="start" font-weight="400" >init: O(n^2.00)</text>
<text x="966.0" y="303.0" font-family="monospace" font-size="11" fill="#374151" text-anchor="start" font-weight="400" >scramble: O(n^2.19)</text>
<text x="966.0" y="322.0" font-family="monospace" font-size="11" fill="#374151" text-anchor="start" font-weight="400" >corner: O(n^1.15)</text>
<text x="966.0" y="341.0" font-family="monospace" font-size="11" fill="#374151" text-anchor="start" font-weight="400" >edge: O(n^1.00)</text>
<text x="966.0" y="360.0" font-family="monospace" font-size="11" fill="#374151" text-anchor="start" font-weight="400" >center: O(n^2.33)</text>
</svg>
