<?xml version="1.0" encoding="UTF-8" standalone="no"?>
<!DOCTYPE svg PUBLIC "-//W3C//DTD SVG 1.1//EN"
 "http://www.w3.org/Graphics/SVG/1.1/DTD/svg11.dtd">
<!-- Generated by graphviz version 2.43.0 (0)
 -->
<!-- Title: %3 Pages: 1 -->
<svg width="934pt" height="1478pt"
 viewBox="0.00 0.00 933.60 1477.60" xmlns="http://www.w3.org/2000/svg" xmlns:xlink="http://www.w3.org/1999/xlink">
<g id="graph0" class="graph" transform="scale(1 1) rotate(0) translate(28.8 1448.8)">
<title>%3</title>
<polygon fill="white" stroke="transparent" points="-28.8,28.8 -28.8,-1448.8 904.8,-1448.8 904.8,28.8 -28.8,28.8"/>
<text text-anchor="middle" x="438" y="-1387.2" font-family="Helvetica,sans-Serif" font-size="36.00">rubik</text>
<!-- rubik&#45;&gt;rubik::puzzle -->
<g id="edge1" class="edge">
<title>rubik&#45;&gt;rubik::puzzle</title>
<path fill="none" stroke="#000000" d="M36.15,-630.59C61.22,-689.34 137.34,-867.71 167.25,-937.79"/>
<polygon fill="#000000" stroke="#000000" points="164.17,-939.5 171.31,-947.32 170.61,-936.75 164.17,-939.5"/>
<text text-anchor="middle" x="102.5" y="-812.5" font-family="monospace" font-size="10.00">owns</text>
</g>
<!-- rubik&#45;&gt;rubik::runtime -->
<g id="edge2" class="edge">
<title>rubik&#45;&gt;rubik::runtime</title>
<path fill="none" stroke="#000000" d="M52.34,-630.62C78.07,-650.83 118.79,-682.81 147.19,-705.12"/>
<polygon fill="#000000" stroke="#000000" points="145.19,-708 155.22,-711.43 149.52,-702.5 145.19,-708"/>
<text text-anchor="middle" x="102.5" y="-680.5" font-family="monospace" font-size="10.00">owns</text>
</g>
<!-- rubik&#45;&gt;rubik::solver -->
<g id="edge3" class="edge">
<title>rubik&#45;&gt;rubik::solver</title>
<path fill="none" stroke="#000000" d="M52.68,-592.28C78.32,-572.31 118.57,-540.95 146.84,-518.94"/>
<polygon fill="#000000" stroke="#000000" points="149.09,-521.62 154.83,-512.71 144.79,-516.1 149.09,-521.62"/>
<text text-anchor="middle" x="102.5" y="-565.5" font-family="monospace" font-size="10.00">owns</text>
</g>
<!-- rubik&#45;&gt;rubik::storage -->
<g id="edge4" class="edge">
<title>rubik&#45;&gt;rubik::storage</title>
<path fill="none" stroke="#000000" d="M34.13,-592.37C57.64,-518.97 142.16,-255.07 170.31,-167.19"/>
<polygon fill="#000000" stroke="#000000" points="173.66,-168.2 173.38,-157.61 167,-166.06 173.66,-168.2"/>
<text text-anchor="middle" x="102.5" y="-419.5" font-family="monospace" font-size="10.00">owns</text>
</g>
<!-- rubik::puzzle&#45;&gt;rubik::puzzle::layout -->
<g id="edge5" class="edge">
<title>rubik::puzzle&#45;&gt;rubik::puzzle::layout</title>
<path fill="none" stroke="#000000" d="M196.03,-985.77C231.41,-1032.71 322.11,-1153.06 362.99,-1207.29"/>
<polygon fill="#000000" stroke="#000000" points="360.29,-1209.52 369.1,-1215.4 365.88,-1205.31 360.29,-1209.52"/>
<text text-anchor="middle" x="258.5" y="-1086.5" font-family="monospace" font-size="10.00">owns</text>
</g>
<!-- rubik::puzzle&#45;&gt;rubik::puzzle::model -->
<g id="edge6" class="edge">
<title>rubik::puzzle&#45;&gt;rubik::puzzle::model</title>
<path fill="none" stroke="#000000" d="M210.01,-974.97C240.26,-983.95 288.85,-998.38 326.92,-1009.69"/>
<polygon fill="#000000" stroke="#000000" points="326.27,-1013.15 336.85,-1012.64 328.26,-1006.44 326.27,-1013.15"/>
<text text-anchor="middle" x="258.5" y="-995.5" font-family="monospace" font-size="10.00">owns</text>
</g>
<!-- rubik::puzzle&#45;&gt;rubik::puzzle::moves -->
<g id="edge7" class="edge">
<title>rubik::puzzle&#45;&gt;rubik::puzzle::moves</title>
<path fill="none" stroke="#000000" d="M210.01,-960.99C240.26,-955.15 288.85,-945.77 326.92,-938.42"/>
<polygon fill="#000000" stroke="#000000" points="327.69,-941.84 336.85,-936.51 326.37,-934.97 327.69,-941.84"/>
<text text-anchor="middle" x="258.5" y="-942.5" font-family="monospace" font-size="10.00">owns</text>
</g>
<!-- rubik::puzzle::layout&#45;&gt;rubik::puzzle::layout::geometry -->
<g id="edge8" class="edge">
<title>rubik::puzzle::layout&#45;&gt;rubik::puzzle::layout::geometry</title>
<path fill="none" stroke="#000000" d="M435.05,-1252.17C493.29,-1272.93 590.03,-1307.41 653.53,-1330.05"/>
<polygon fill="#000000" stroke="#000000" points="652.44,-1333.38 663.04,-1333.44 654.79,-1326.79 652.44,-1333.38"/>
<text text-anchor="middle" x="510.5" y="-1298.5" font-family="monospace" font-size="10.00">owns</text>
</g>
<!-- rubik::puzzle::layout&#45;&gt;rubik::puzzle::layout::matrix -->
<g id="edge9" class="edge">
<title>rubik::puzzle::layout&#45;&gt;rubik::puzzle::layout::matrix</title>
<path fill="none" stroke="#000000" d="M435.05,-1240.34C487.24,-1246.49 570.35,-1256.28 632.75,-1263.63"/>
<polygon fill="#000000" stroke="#000000" points="632.63,-1267.14 642.97,-1264.84 633.45,-1260.19 632.63,-1267.14"/>
<text text-anchor="middle" x="510.5" y="-1253.5" font-family="monospace" font-size="10.00">owns</text>
</g>
<!-- rubik::puzzle::layout&#45;&gt;rubik::puzzle::layout::strip -->
<g id="edge10" class="edge">
<title>rubik::puzzle::layout&#45;&gt;rubik::puzzle::layout::strip</title>
<path fill="none" stroke="#000000" d="M435.05,-1228.51C488.01,-1222.11 572.81,-1211.86 635.49,-1204.29"/>
<polygon fill="#000000" stroke="#000000" points="636.24,-1207.72 645.75,-1203.05 635.4,-1200.78 636.24,-1207.72"/>
<text text-anchor="middle" x="510.5" y="-1222.5" font-family="monospace" font-size="10.00">owns</text>
</g>
<!-- rubik::puzzle::model&#45;&gt;rubik::puzzle::model::cube -->
<g id="edge11" class="edge">
<title>rubik::puzzle::model&#45;&gt;rubik::puzzle::model::cube</title>
<path fill="none" stroke="#000000" d="M432.22,-1039.06C486.8,-1053.74 577.81,-1078.21 642.13,-1095.5"/>
<polygon fill="#000000" stroke="#000000" points="641.25,-1098.89 651.82,-1098.11 643.07,-1092.13 641.25,-1098.89"/>
<text text-anchor="middle" x="510.5" y="-1068.5" font-family="monospace" font-size="10.00">owns</text>
</g>
<!-- rubik::puzzle::model&#45;&gt;rubik::puzzle::model::face -->
<g id="edge12" class="edge">
<title>rubik::puzzle::model&#45;&gt;rubik::puzzle::model::face</title>
<path fill="none" stroke="#000000" d="M432.22,-1027.91C486.69,-1029.56 577.44,-1032.3 641.73,-1034.24"/>
<polygon fill="#000000" stroke="#000000" points="641.72,-1037.74 651.82,-1034.55 641.93,-1030.75 641.72,-1037.74"/>
<text text-anchor="middle" x="510.5" y="-1033.5" font-family="monospace" font-size="10.00">owns</text>
</g>
<!-- rubik::puzzle::model&#45;&gt;rubik::puzzle::model::facelet -->
<g id="edge13" class="edge">
<title>rubik::puzzle::model&#45;&gt;rubik::puzzle::model::facelet</title>
<path fill="none" stroke="#000000" d="M432.22,-1016.76C484.24,-1005.92 569.34,-988.18 632.89,-974.93"/>
<polygon fill="#000000" stroke="#000000" points="633.82,-978.31 642.9,-972.84 632.4,-971.46 633.82,-978.31"/>
<text text-anchor="middle" x="510.5" y="-1004.5" font-family="monospace" font-size="10.00">owns</text>
</g>
<!-- rubik::puzzle::moves&#45;&gt;rubik::puzzle::moves::history -->
<g id="edge14" class="edge">
<title>rubik::puzzle::moves&#45;&gt;rubik::puzzle::moves::history</title>
<path fill="none" stroke="#000000" d="M432.22,-920.58C484.24,-912.88 569.34,-900.29 632.89,-890.88"/>
<polygon fill="#000000" stroke="#000000" points="633.52,-894.32 642.9,-889.4 632.5,-887.4 633.52,-894.32"/>
<text text-anchor="middle" x="510.5" y="-899.5" font-family="monospace" font-size="10.00">owns</text>
</g>
<!-- rubik::runtime&#45;&gt;rubik::runtime::random -->
<g id="edge15" class="edge">
<title>rubik::runtime&#45;&gt;rubik::runtime::random</title>
<path fill="none" stroke="#000000" d="M210.01,-741.65C239.89,-753.34 287.65,-772.01 325.5,-786.82"/>
<polygon fill="#000000" stroke="#000000" points="324.31,-790.11 334.9,-790.49 326.86,-783.59 324.31,-790.11"/>
<text text-anchor="middle" x="258.5" y="-767.5" font-family="monospace" font-size="10.00">owns</text>
</g>
<!-- rubik::runtime&#45;&gt;rubik::runtime::threading -->
<g id="edge16" class="edge">
<title>rubik::runtime&#45;&gt;rubik::runtime::threading</title>
<path fill="none" stroke="#000000" d="M210.01,-730.5C236.34,-730.5 276.56,-730.5 311.65,-730.5"/>
<polygon fill="#000000" stroke="#000000" points="311.87,-734 321.87,-730.5 311.87,-727 311.87,-734"/>
<text text-anchor="middle" x="258.5" y="-733.5" font-family="monospace" font-size="10.00">owns</text>
</g>
<!-- rubik::runtime::random&#45;&gt;rubik::runtime::random::RandomSource -->
<g id="edge17" class="edge">
<title>rubik::runtime::random&#45;&gt;rubik::runtime::random::RandomSource</title>
<path fill="none" stroke="#000000" d="M438.31,-807.9C484.8,-806.5 553.88,-804.41 611.57,-802.67"/>
<polygon fill="#000000" stroke="#000000" points="611.94,-806.16 621.83,-802.36 611.73,-799.16 611.94,-806.16"/>
<text text-anchor="middle" x="510.5" y="-808.5" font-family="monospace" font-size="10.00">owns</text>
</g>
<!-- rubik::solver&#45;&gt;rubik::solver::Solver -->
<g id="edge18" class="edge">
<title>rubik::solver&#45;&gt;rubik::solver::Solver</title>
<path fill="none" stroke="#000000" d="M205.87,-512.56C242.19,-540.97 310.59,-594.47 351.09,-626.15"/>
<polygon fill="#000000" stroke="#000000" points="349.01,-628.97 359.05,-632.37 353.33,-623.46 349.01,-628.97"/>
<text text-anchor="middle" x="258.5" y="-579.5" font-family="monospace" font-size="10.00">owns</text>
</g>
<!-- rubik::solver&#45;&gt;rubik::solver::SolverStage -->
<g id="edge19" class="edge">
<title>rubik::solver&#45;&gt;rubik::solver::SolverStage</title>
<path fill="none" stroke="#000000" d="M210.01,-504.65C239.89,-516.34 287.65,-535.01 325.5,-549.82"/>
<polygon fill="#000000" stroke="#000000" points="324.31,-553.11 334.9,-553.49 326.86,-546.59 324.31,-553.11"/>
<text text-anchor="middle" x="258.5" y="-530.5" font-family="monospace" font-size="10.00">owns</text>
</g>
<!-- rubik::solver&#45;&gt;rubik::solver::StageOperation -->
<g id="edge20" class="edge">
<title>rubik::solver&#45;&gt;rubik::solver::StageOperation</title>
<path fill="none" stroke="#000000" d="M210.01,-493.5C233.37,-493.5 267.65,-493.5 299.59,-493.5"/>
<polygon fill="#000000" stroke="#000000" points="299.86,-497 309.86,-493.5 299.86,-490 299.86,-497"/>
<text text-anchor="middle" x="258.5" y="-496.5" font-family="monospace" font-size="10.00">owns</text>
</g>
<!-- rubik::solver&#45;&gt;rubik::solver::center_schedule -->
<g id="edge21" class="edge">
<title>rubik::solver&#45;&gt;rubik::solver::center_schedule</title>
<path fill="none" stroke="#000000" d="M210.01,-482.35C239.89,-470.66 287.65,-451.99 325.5,-437.18"/>
<polygon fill="#000000" stroke="#000000" points="326.86,-440.41 334.9,-433.51 324.31,-433.89 326.86,-440.41"/>
<text text-anchor="middle" x="258.5" y="-470.5" font-family="monospace" font-size="10.00">owns</text>
</g>
<!-- rubik::solver&#45;&gt;rubik::solver::corners -->
<g id="edge22" class="edge">
<title>rubik::solver&#45;&gt;rubik::solver::corners</title>
<path fill="none" stroke="#000000" d="M205.87,-474.44C242.19,-446.03 310.59,-392.53 351.09,-360.85"/>
<polygon fill="#000000" stroke="#000000" points="353.33,-363.54 359.05,-354.63 349.01,-358.03 353.33,-363.54"/>
<text text-anchor="middle" x="258.5" y="-433.5" font-family="monospace" font-size="10.00">owns</text>
</g>
<!-- rubik::solver&#45;&gt;rubik::solver::edges -->
<g id="edge23" class="edge">
<title>rubik::solver&#45;&gt;rubik::solver::edges</title>
<path fill="none" stroke="#000000" d="M198.03,-474.11C234.02,-431.88 319.51,-331.58 360.63,-283.33"/>
<polygon fill="#000000" stroke="#000000" points="363.48,-285.38 367.31,-275.5 358.16,-280.84 363.48,-285.38"/>
<text text-anchor="middle" x="258.5" y="-391.5" font-family="monospace" font-size="10.00">owns</text>
</g>
<!-- rubik::solver::center_schedule&#45;&gt;rubik::solver::center_schedule::generated_center_schedule -->
<g id="edge24" class="edge">
<title>rubik::solver::center_schedule&#45;&gt;rubik::solver::center_schedule::generated_center_schedule</title>
<path fill="none" stroke="#000000" d="M462.27,-414.5C488.26,-414.5 518.41,-414.5 548.65,-414.5"/>
<polygon fill="#000000" stroke="#000000" points="548.91,-418 558.91,-414.5 548.91,-411 548.91,-418"/>
<text text-anchor="middle" x="510.5" y="-417.5" font-family="monospace" font-size="10.00">owns</text>
</g>
<!-- rubik::storage&#45;&gt;rubik::storage::backends -->
<g id="edge25" class="edge">
<title>rubik::storage&#45;&gt;rubik::storage::backends</title>
<path fill="none" stroke="#000000" d="M210.01,-144.01C237.15,-149.24 279.05,-157.33 314.87,-164.25"/>
<polygon fill="#000000" stroke="#000000" points="314.31,-167.71 324.79,-166.17 315.64,-160.83 314.31,-167.71"/>
<text text-anchor="middle" x="258.5" y="-158.5" font-family="monospace" font-size="10.00">owns</text>
</g>
<!-- rubik::storage&#45;&gt;rubik::storage::facelet_array -->
<g id="edge26" class="edge">
<title>rubik::storage&#45;&gt;rubik::storage::facelet_array</title>
<path fill="none" stroke="#000000" d="M210.01,-132.85C233.47,-128.21 267.95,-121.38 300.01,-115.03"/>
<polygon fill="#000000" stroke="#000000" points="300.73,-118.46 309.86,-113.08 299.37,-111.59 300.73,-118.46"/>
<text text-anchor="middle" x="258.5" y="-128.5" font-family="monospace" font-size="10.00">owns</text>
</g>
<!-- rubik::storage&#45;&gt;rubik::storage::init -->
<g id="edge27" class="edge">
<title>rubik::storage&#45;&gt;rubik::storage::init</title>
<path fill="none" stroke="#000000" d="M210.01,-121.7C244.45,-101.42 302.64,-67.14 342.03,-43.93"/>
<polygon fill="#000000" stroke="#000000" points="344.28,-46.66 351.12,-38.57 340.73,-40.63 344.28,-46.66"/>
<text text-anchor="middle" x="258.5" y="-99.5" font-family="monospace" font-size="10.00">owns</text>
</g>
<!-- rubik::storage::backends&#45;&gt;rubik::storage::backends::byte -->
<g id="edge28" class="edge">
<title>rubik::storage::backends&#45;&gt;rubik::storage::backends::byte</title>
<path fill="none" stroke="#000000" d="M425.43,-196.56C486.15,-225.54 601.57,-280.64 667.36,-312.04"/>
<polygon fill="#000000" stroke="#000000" points="666.16,-315.35 676.69,-316.5 669.17,-309.03 666.16,-315.35"/>
<text text-anchor="middle" x="510.5" y="-268.5" font-family="monospace" font-size="10.00">owns</text>
</g>
<!-- rubik::storage::backends&#45;&gt;rubik::storage::backends::byte3 -->
<g id="edge29" class="edge">
<title>rubik::storage::backends&#45;&gt;rubik::storage::backends::byte3</title>
<path fill="none" stroke="#000000" d="M444.29,-191.53C494.96,-203.62 568.88,-221.27 626.91,-235.12"/>
<polygon fill="#000000" stroke="#000000" points="626.28,-238.56 636.81,-237.48 627.9,-231.76 626.28,-238.56"/>
<text text-anchor="middle" x="510.5" y="-212.5" font-family="monospace" font-size="10.00">owns</text>
</g>
<!-- rubik::storage::backends&#45;&gt;rubik::storage::backends::nibble -->
<g id="edge30" class="edge">
<title>rubik::storage::backends&#45;&gt;rubik::storage::backends::nibble</title>
<path fill="none" stroke="#000000" d="M444.29,-177.5C493.98,-177.5 566.03,-177.5 623.52,-177.5"/>
<polygon fill="#000000" stroke="#000000" points="623.71,-181 633.71,-177.5 623.71,-174 623.71,-181"/>
<text text-anchor="middle" x="510.5" y="-180.5" font-family="monospace" font-size="10.00">owns</text>
</g>
<!-- rubik::storage::backends&#45;&gt;rubik::storage::backends::three_bit -->
<g id="edge31" class="edge">
<title>rubik::storage::backends&#45;&gt;rubik::storage::backends::three_bit</title>
<path fill="none" stroke="#000000" d="M444.29,-163.47C494.96,-151.38 568.88,-133.73 626.91,-119.88"/>
<polygon fill="#000000" stroke="#000000" points="627.9,-123.24 636.81,-117.52 626.28,-116.44 627.9,-123.24"/>
<text text-anchor="middle" x="510.5" y="-152.5" font-family="monospace" font-size="10.00">owns</text>
</g>
<!-- rubik::storage::facelet_array&#45;&gt;rubik::storage::facelet_array::FaceletArray -->
<g id="edge32" class="edge">
<title>rubik::storage::facelet_array&#45;&gt;rubik::storage::facelet_array::FaceletArray</title>
<path fill="none" stroke="#000000" d="M459.37,-80.87C508.86,-69.06 574.32,-53.43 626.8,-40.91"/>
<polygon fill="#000000" stroke="#000000" points="627.87,-44.25 636.78,-38.53 626.24,-37.44 627.87,-44.25"/>
<text text-anchor="middle" x="510.5" y="-73.5" font-family="monospace" font-size="10.00">owns</text>
</g>
<!-- rubik -->
<g id="node1" class="node">
<title>rubik</title>
<polygon fill="#5397c8" stroke="black" points="0,-592.5 0,-630.5 54,-630.5 54,-592.5 0,-592.5"/>
<text text-anchor="middle" x="27" y="-618.5" font-family="monospace" font-size="10.00">crate</text>
<polyline fill="none" stroke="black" points="0,-611.5 54,-611.5 "/>
<text text-anchor="middle" x="27" y="-599.5" font-family="monospace" font-size="10.00">rubik</text>
</g>
<!-- rubik::puzzle -->
<g id="node2" class="node">
<title>rubik::puzzle</title>
<polygon fill="#81c169" stroke="black" points="151,-947.5 151,-985.5 210,-985.5 210,-947.5 151,-947.5"/>
<text text-anchor="middle" x="180.5" y="-973.5" font-family="monospace" font-size="10.00">pub mod</text>
<polyline fill="none" stroke="black" points="151,-966.5 210,-966.5 "/>
<text text-anchor="middle" x="180.5" y="-954.5" font-family="monospace" font-size="10.00">puzzle</text>
</g>
<!-- rubik::puzzle::layout -->
<g id="node3" class="node">
<title>rubik::puzzle::layout</title>
<polygon fill="#81c169" stroke="black" points="334,-1215.5 334,-1253.5 435,-1253.5 435,-1215.5 334,-1215.5"/>
<text text-anchor="middle" x="384.5" y="-1241.5" font-family="monospace" font-size="10.00">pub mod</text>
<polyline fill="none" stroke="black" points="334,-1234.5 435,-1234.5 "/>
<text text-anchor="middle" x="384.5" y="-1222.5" font-family="monospace" font-size="10.00">puzzle::layout</text>
</g>
<!-- rubik::puzzle::layout::geometry -->
<g id="node4" class="node">
<title>rubik::puzzle::layout::geometry</title>
<polygon fill="#f8c04c" stroke="black" points="637,-1333.5 637,-1371.5 798,-1371.5 798,-1333.5 637,-1333.5"/>
<text text-anchor="middle" x="717.5" y="-1359.5" font-family="monospace" font-size="10.00">pub(crate) mod</text>
<polyline fill="none" stroke="black" points="637,-1352.5 798,-1352.5 "/>
<text text-anchor="middle" x="717.5" y="-1340.5" font-family="monospace" font-size="10.00">puzzle::layout::geometry</text>
</g>
<!-- rubik::puzzle::layout::matrix -->
<g id="node5" class="node">
<title>rubik::puzzle::layout::matrix</title>
<polygon fill="#81c169" stroke="black" points="643,-1254.5 643,-1292.5 792,-1292.5 792,-1254.5 643,-1254.5"/>
<text text-anchor="middle" x="717.5" y="-1280.5" font-family="monospace" font-size="10.00">pub mod</text>
<polyline fill="none" stroke="black" points="643,-1273.5 792,-1273.5 "/>
<text text-anchor="middle" x="717.5" y="-1261.5" font-family="monospace" font-size="10.00">puzzle::layout::matrix</text>
</g>
<!-- rubik::puzzle::layout::strip -->
<g id="node6" class="node">
<title>rubik::puzzle::layout::strip</title>
<polygon fill="#81c169" stroke="black" points="646,-1175.5 646,-1213.5 789,-1213.5 789,-1175.5 646,-1175.5"/>
<text text-anchor="middle" x="717.5" y="-1201.5" font-family="monospace" font-size="10.00">pub mod</text>
<polyline fill="none" stroke="black" points="646,-1194.5 789,-1194.5 "/>
<text text-anchor="middle" x="717.5" y="-1182.5" font-family="monospace" font-size="10.00">puzzle::layout::strip</text>
</g>
<!-- rubik::puzzle::model -->
<g id="node7" class="node">
<title>rubik::puzzle::model</title>
<polygon fill="#81c169" stroke="black" points="337,-1007.5 337,-1045.5 432,-1045.5 432,-1007.5 337,-1007.5"/>
<text text-anchor="middle" x="384.5" y="-1033.5" font-family="monospace" font-size="10.00">pub mod</text>
<polyline fill="none" stroke="black" points="337,-1026.5 432,-1026.5 "/>
<text text-anchor="middle" x="384.5" y="-1014.5" font-family="monospace" font-size="10.00">puzzle::model</text>
</g>
<!-- rubik::puzzle::model::cube -->
<g id="node8" class="node">
<title>rubik::puzzle::model::cube</title>
<polygon fill="#81c169" stroke="black" points="652,-1096.5 652,-1134.5 783,-1134.5 783,-1096.5 652,-1096.5"/>
<text text-anchor="middle" x="717.5" y="-1122.5" font-family="monospace" font-size="10.00">pub mod</text>
<polyline fill="none" stroke="black" points="652,-1115.5 783,-1115.5 "/>
<text text-anchor="middle" x="717.5" y="-1103.5" font-family="monospace" font-size="10.00">puzzle::model::cube</text>
</g>
<!-- rubik::puzzle::model::face -->
<g id="node9" class="node">
<title>rubik::puzzle::model::face</title>
<polygon fill="#81c169" stroke="black" points="652,-1017.5 652,-1055.5 783,-1055.5 783,-1017.5 652,-1017.5"/>
<text text-anchor="middle" x="717.5" y="-1043.5" font-family="monospace" font-size="10.00">pub mod</text>
<polyline fill="none" stroke="black" points="652,-1036.5 783,-1036.5 "/>
<text text-anchor="middle" x="717.5" y="-1024.5" font-family="monospace" font-size="10.00">puzzle::model::face</text>
</g>
<!-- rubik::puzzle::model::facelet -->
<g id="node10" class="node">
<title>rubik::puzzle::model::facelet</title>
<polygon fill="#81c169" stroke="black" points="643,-938.5 643,-976.5 792,-976.5 792,-938.5 643,-938.5"/>
<text text-anchor="middle" x="717.5" y="-964.5" font-family="monospace" font-size="10.00">pub mod</text>
<polyline fill="none" stroke="black" points="643,-957.5 792,-957.5 "/>
<text text-anchor="middle" x="717.5" y="-945.5" font-family="monospace" font-size="10.00">puzzle::model::facelet</text>
</g>
<!-- rubik::puzzle::moves -->
<g id="node11" class="node">
<title>rubik::puzzle::moves</title>
<polygon fill="#81c169" stroke="black" points="337,-908.5 337,-946.5 432,-946.5 432,-908.5 337,-908.5"/>
<text text-anchor="middle" x="384.5" y="-934.5" font-family="monospace" font-size="10.00">pub mod</text>
<polyline fill="none" stroke="black" points="337,-927.5 432,-927.5 "/>
<text text-anchor="middle" x="384.5" y="-915.5" font-family="monospace" font-size="10.00">puzzle::moves</text>
</g>
<!-- rubik::puzzle::moves::history -->
<g id="node12" class="node">
<title>rubik::puzzle::moves::history</title>
<polygon fill="#81c169" stroke="black" points="643,-859.5 643,-897.5 792,-897.5 792,-859.5 643,-859.5"/>
<text text-anchor="middle" x="717.5" y="-885.5" font-family="monospace" font-size="10.00">pub mod</text>
<polyline fill="none" stroke="black" points="643,-878.5 792,-878.5 "/>
<text text-anchor="middle" x="717.5" y="-866.5" font-family="monospace" font-size="10.00">puzzle::moves::history</text>
</g>
<!-- rubik::runtime -->
<g id="node13" class="node">
<title>rubik::runtime</title>
<polygon fill="#81c169" stroke="black" points="151,-711.5 151,-749.5 210,-749.5 210,-711.5 151,-711.5"/>
<text text-anchor="middle" x="180.5" y="-737.5" font-family="monospace" font-size="10.00">pub mod</text>
<polyline fill="none" stroke="black" points="151,-730.5 210,-730.5 "/>
<text text-anchor="middle" x="180.5" y="-718.5" font-family="monospace" font-size="10.00">runtime</text>
</g>
<!-- rubik::runtime::random -->
<g id="node14" class="node">
<title>rubik::runtime::random</title>
<polygon fill="#81c169" stroke="black" points="331,-790.5 331,-828.5 438,-828.5 438,-790.5 331,-790.5"/>
<text text-anchor="middle" x="384.5" y="-816.5" font-family="monospace" font-size="10.00">pub mod</text>
<polyline fill="none" stroke="black" points="331,-809.5 438,-809.5 "/>
<text text-anchor="middle" x="384.5" y="-797.5" font-family="monospace" font-size="10.00">runtime::random</text>
</g>
<!-- rubik::runtime::random::RandomSource -->
<g id="node15" class="node">
<title>rubik::runtime::random::RandomSource</title>
<polygon fill="#81c169" stroke="black" points="622,-780.5 622,-818.5 813,-818.5 813,-780.5 622,-780.5"/>
<text text-anchor="middle" x="717.5" y="-806.5" font-family="monospace" font-size="10.00">pub trait</text>
<polyline fill="none" stroke="black" points="622,-799.5 813,-799.5 "/>
<text text-anchor="middle" x="717.5" y="-787.5" font-family="monospace" font-size="10.00">runtime::random::RandomSource</text>
</g>
<!-- rubik::runtime::threading -->
<g id="node16" class="node">
<title>rubik::runtime::threading</title>
<polygon fill="#f8c04c" stroke="black" points="322,-711.5 322,-749.5 447,-749.5 447,-711.5 322,-711.5"/>
<text text-anchor="middle" x="384.5" y="-737.5" font-family="monospace" font-size="10.00">pub(crate) mod</text>
<polyline fill="none" stroke="black" points="322,-730.5 447,-730.5 "/>
<text text-anchor="middle" x="384.5" y="-718.5" font-family="monospace" font-size="10.00">runtime::threading</text>
</g>
<!-- rubik::solver -->
<g id="node17" class="node">
<title>rubik::solver</title>
<polygon fill="#81c169" stroke="black" points="151,-474.5 151,-512.5 210,-512.5 210,-474.5 151,-474.5"/>
<text text-anchor="middle" x="180.5" y="-500.5" font-family="monospace" font-size="10.00">pub mod</text>
<polyline fill="none" stroke="black" points="151,-493.5 210,-493.5 "/>
<text text-anchor="middle" x="180.5" y="-481.5" font-family="monospace" font-size="10.00">solver</text>
</g>
<!-- rubik::solver::Solver -->
<g id="node18" class="node">
<title>rubik::solver::Solver</title>
<polygon fill="#81c169" stroke="black" points="334,-632.5 334,-670.5 435,-670.5 435,-632.5 334,-632.5"/>
<text text-anchor="middle" x="384.5" y="-658.5" font-family="monospace" font-size="10.00">pub trait</text>
<polyline fill="none" stroke="black" points="334,-651.5 435,-651.5 "/>
<text text-anchor="middle" x="384.5" y="-639.5" font-family="monospace" font-size="10.00">solver::Solver</text>
</g>
<!-- rubik::solver::SolverStage -->
<g id="node19" class="node">
<title>rubik::solver::SolverStage</title>
<polygon fill="#81c169" stroke="black" points="319,-553.5 319,-591.5 450,-591.5 450,-553.5 319,-553.5"/>
<text text-anchor="middle" x="384.5" y="-579.5" font-family="monospace" font-size="10.00">pub trait</text>
<polyline fill="none" stroke="black" points="319,-572.5 450,-572.5 "/>
<text text-anchor="middle" x="384.5" y="-560.5" font-family="monospace" font-size="10.00">solver::SolverStage</text>
</g>
<!-- rubik::solver::StageOperation -->
<g id="node20" class="node">
<title>rubik::solver::StageOperation</title>
<polygon fill="#81c169" stroke="black" points="310,-474.5 310,-512.5 459,-512.5 459,-474.5 310,-474.5"/>
<text text-anchor="middle" x="384.5" y="-500.5" font-family="monospace" font-size="10.00">pub trait</text>
<polyline fill="none" stroke="black" points="310,-493.5 459,-493.5 "/>
<text text-anchor="middle" x="384.5" y="-481.5" font-family="monospace" font-size="10.00">solver::StageOperation</text>
</g>
<!-- rubik::solver::center_schedule -->
<g id="node21" class="node">
<title>rubik::solver::center_schedule</title>
<polygon fill="#db5367" stroke="black" points="307,-395.5 307,-433.5 462,-433.5 462,-395.5 307,-395.5"/>
<text text-anchor="middle" x="384.5" y="-421.5" font-family="monospace" font-size="10.00">pub(self) mod</text>
<polyline fill="none" stroke="black" points="307,-414.5 462,-414.5 "/>
<text text-anchor="middle" x="384.5" y="-402.5" font-family="monospace" font-size="10.00">solver::center_schedule</text>
</g>
<!-- rubik::solver::center_schedule::generated_center_schedule -->
<g id="node22" class="node">
<title>rubik::solver::center_schedule::generated_center_schedule</title>
<polygon fill="#db5367" stroke="black" points="559,-395.5 559,-433.5 876,-433.5 876,-395.5 559,-395.5"/>
<text text-anchor="middle" x="717.5" y="-421.5" font-family="monospace" font-size="10.00">pub(self) mod</text>
<polyline fill="none" stroke="black" points="559,-414.5 876,-414.5 "/>
<text text-anchor="middle" x="717.5" y="-402.5" font-family="monospace" font-size="10.00">solver::center_schedule::generated_center_schedule</text>
</g>
<!-- rubik::solver::corners -->
<g id="node23" class="node">
<title>rubik::solver::corners</title>
<polygon fill="#db5367" stroke="black" points="331,-316.5 331,-354.5 438,-354.5 438,-316.5 331,-316.5"/>
<text text-anchor="middle" x="384.5" y="-342.5" font-family="monospace" font-size="10.00">pub(self) mod</text>
<polyline fill="none" stroke="black" points="331,-335.5 438,-335.5 "/>
<text text-anchor="middle" x="384.5" y="-323.5" font-family="monospace" font-size="10.00">solver::corners</text>
</g>
<!-- rubik::solver::edges -->
<g id="node24" class="node">
<title>rubik::solver::edges</title>
<polygon fill="#db5367" stroke="black" points="337,-237.5 337,-275.5 432,-275.5 432,-237.5 337,-237.5"/>
<text text-anchor="middle" x="384.5" y="-263.5" font-family="monospace" font-size="10.00">pub(self) mod</text>
<polyline fill="none" stroke="black" points="337,-256.5 432,-256.5 "/>
<text text-anchor="middle" x="384.5" y="-244.5" font-family="monospace" font-size="10.00">solver::edges</text>
</g>
<!-- rubik::storage -->
<g id="node25" class="node">
<title>rubik::storage</title>
<polygon fill="#81c169" stroke="black" points="151,-119.5 151,-157.5 210,-157.5 210,-119.5 151,-119.5"/>
<text text-anchor="middle" x="180.5" y="-145.5" font-family="monospace" font-size="10.00">pub mod</text>
<polyline fill="none" stroke="black" points="151,-138.5 210,-138.5 "/>
<text text-anchor="middle" x="180.5" y="-126.5" font-family="monospace" font-size="10.00">storage</text>
</g>
<!-- rubik::storage::backends -->
<g id="node26" class="node">
<title>rubik::storage::backends</title>
<polygon fill="#db5367" stroke="black" points="325,-158.5 325,-196.5 444,-196.5 444,-158.5 325,-158.5"/>
<text text-anchor="middle" x="384.5" y="-184.5" font-family="monospace" font-size="10.00">pub(self) mod</text>
<polyline fill="none" stroke="black" points="325,-177.5 444,-177.5 "/>
<text text-anchor="middle" x="384.5" y="-165.5" font-family="monospace" font-size="10.00">storage::backends</text>
</g>
<!-- rubik::storage::backends::byte -->
<g id="node27" class="node">
<title>rubik::storage::backends::byte</title>
<polygon fill="#db5367" stroke="black" points="640,-316.5 640,-354.5 795,-354.5 795,-316.5 640,-316.5"/>
<text text-anchor="middle" x="717.5" y="-342.5" font-family="monospace" font-size="10.00">pub(self) mod</text>
<polyline fill="none" stroke="black" points="640,-335.5 795,-335.5 "/>
<text text-anchor="middle" x="717.5" y="-323.5" font-family="monospace" font-size="10.00">storage::backends::byte</text>
</g>
<!-- rubik::storage::backends::byte3 -->
<g id="node28" class="node">
<title>rubik::storage::backends::byte3</title>
<polygon fill="#db5367" stroke="black" points="637,-237.5 637,-275.5 798,-275.5 798,-237.5 637,-237.5"/>
<text text-anchor="middle" x="717.5" y="-263.5" font-family="monospace" font-size="10.00">pub(self) mod</text>
<polyline fill="none" stroke="black" points="637,-256.5 798,-256.5 "/>
<text text-anchor="middle" x="717.5" y="-244.5" font-family="monospace" font-size="10.00">storage::backends::byte3</text>
</g>
<!-- rubik::storage::backends::nibble -->
<g id="node29" class="node">
<title>rubik::storage::backends::nibble</title>
<polygon fill="#db5367" stroke="black" points="634,-158.5 634,-196.5 801,-196.5 801,-158.5 634,-158.5"/>
<text text-anchor="middle" x="717.5" y="-184.5" font-family="monospace" font-size="10.00">pub(self) mod</text>
<polyline fill="none" stroke="black" points="634,-177.5 801,-177.5 "/>
<text text-anchor="middle" x="717.5" y="-165.5" font-family="monospace" font-size="10.00">storage::backends::nibble</text>
</g>
<!-- rubik::storage::backends::three_bit -->
<g id="node30" class="node">
<title>rubik::storage::backends::three_bit</title>
<polygon fill="#db5367" stroke="black" points="625,-79.5 625,-117.5 810,-117.5 810,-79.5 625,-79.5"/>
<text text-anchor="middle" x="717.5" y="-105.5" font-family="monospace" font-size="10.00">pub(self) mod</text>
<polyline fill="none" stroke="black" points="625,-98.5 810,-98.5 "/>
<text text-anchor="middle" x="717.5" y="-86.5" font-family="monospace" font-size="10.00">storage::backends::three_bit</text>
</g>
<!-- rubik::storage::facelet_array -->
<g id="node31" class="node">
<title>rubik::storage::facelet_array</title>
<polygon fill="#db5367" stroke="black" points="310,-79.5 310,-117.5 459,-117.5 459,-79.5 310,-79.5"/>
<text text-anchor="middle" x="384.5" y="-105.5" font-family="monospace" font-size="10.00">pub(self) mod</text>
<polyline fill="none" stroke="black" points="310,-98.5 459,-98.5 "/>
<text text-anchor="middle" x="384.5" y="-86.5" font-family="monospace" font-size="10.00">storage::facelet_array</text>
</g>
<!-- rubik::storage::facelet_array::FaceletArray -->
<g id="node32" class="node">
<title>rubik::storage::facelet_array::FaceletArray</title>
<polygon fill="#81c169" stroke="black" points="601,-0.5 601,-38.5 834,-38.5 834,-0.5 601,-0.5"/>
<text text-anchor="middle" x="717.5" y="-26.5" font-family="monospace" font-size="10.00">pub trait</text>
<polyline fill="none" stroke="black" points="601,-19.5 834,-19.5 "/>
<text text-anchor="middle" x="717.5" y="-7.5" font-family="monospace" font-size="10.00">storage::facelet_array::FaceletArray</text>
</g>
<!-- rubik::storage::init -->
<g id="node33" class="node">
<title>rubik::storage::init</title>
<polygon fill="#db5367" stroke="black" points="337,-0.5 337,-38.5 432,-38.5 432,-0.5 337,-0.5"/>
<text text-anchor="middle" x="384.5" y="-26.5" font-family="monospace" font-size="10.00">pub(self) mod</text>
<polyline fill="none" stroke="black" points="337,-19.5 432,-19.5 "/>
<text text-anchor="middle" x="384.5" y="-7.5" font-family="monospace" font-size="10.00">storage::init</text>
</g>
</g>
</svg>
